<svg width="135" height="22" viewBox="0 0 135 22" fill="none" xmlns="http://www.w3.org/2000/svg">
<path d="M14.0064 2.05105V4.72048H5.53885V10.6047H12.1407V13.2741H5.53885V22H2.26665V2.05105H14.0064Z" fill="#03377D"/>
<path fill-rule="evenodd" clip-rule="evenodd" d="M25.9994 0.0135982C25.7612 0.0396569 25.5391 0.0947371 25.4908 0.139739C25.3884 0.235132 25.4007 0.378537 25.5178 0.454613C25.5756 0.492173 25.5947 0.492267 25.8305 0.456386C25.9687 0.435367 26.1711 0.411128 26.2803 0.402543C26.4439 0.389688 26.4886 0.377394 26.5333 0.333068C26.6083 0.258578 26.6068 0.130711 26.5298 0.054401C26.477 0.00202692 26.4554 -0.00254556 26.2769 0.000860501C26.1696 0.00291347 26.0447 0.0086524 25.9994 0.0135982ZM24.3761 0.946836C24.2602 0.989085 24.2103 1.11868 24.2676 1.22851C24.2968 1.28464 24.3459 1.31271 24.5418 1.38561C24.8064 1.48401 24.8631 1.48182 24.9472 1.36982C24.9832 1.32192 24.9901 1.2884 24.9778 1.22289C24.9584 1.1205 24.8881 1.07249 24.6348 0.988689C24.4517 0.928126 24.4349 0.925397 24.3761 0.946836ZM26.1641 1.15253C26.1447 1.15631 26.05 1.17215 25.9537 1.18773C25.7758 1.21655 25.5298 1.29106 25.3803 1.3614C25.2377 1.42851 25.2089 1.59513 25.3219 1.69951C25.3888 1.76138 25.4666 1.75921 25.6511 1.69034C25.8832 1.60369 26.1373 1.56018 26.4111 1.56018C27.2307 1.56018 27.9104 1.97267 28.2756 2.69165C28.3852 2.90759 28.4422 3.12011 28.5163 3.58971C28.6545 4.46549 28.8687 5.12547 29.2545 5.86442C29.7883 6.8868 30.6074 7.77184 31.5513 8.34616C32.7094 9.05084 34.074 9.31005 35.3747 9.07249C35.7443 9.00498 35.8503 8.96606 35.8943 8.88182C35.9556 8.76424 35.9002 8.63477 35.7721 8.59616C35.7448 8.58792 35.6283 8.60311 35.5133 8.62989C34.8331 8.78827 33.9629 8.7837 33.2596 8.61804C32.1402 8.35433 31.0652 7.66348 30.2961 6.7134C29.9883 6.33322 29.678 5.84359 29.492 5.4445C29.1817 4.7788 29.0201 4.21041 28.8818 3.29821C28.7947 2.72412 28.5765 2.27686 28.1891 1.87846C27.7984 1.47655 27.3316 1.24659 26.7413 1.16517C26.5773 1.14254 26.2521 1.13543 26.1641 1.15253ZM29.0192 1.27953C28.9915 1.29092 28.9518 1.3243 28.931 1.35374C28.8694 1.44086 28.8846 1.53275 28.9819 1.66304C29.2396 2.00827 29.4144 2.36656 29.5397 2.80636C29.5773 2.93829 29.5771 2.94543 29.5361 2.96705C29.4349 3.02041 29.274 3.2202 29.2226 3.35625C29.1539 3.5385 29.1633 3.80417 29.2438 3.95957C29.3228 4.11186 29.4705 4.25767 29.6192 4.33006C29.7326 4.38528 29.781 4.39468 29.9519 4.39468C30.1348 4.39468 30.1645 4.38789 30.2997 4.31518C30.6456 4.1292 30.7962 3.77345 30.6841 3.40734C30.6001 3.13337 30.3586 2.91654 30.0858 2.87038C30.0342 2.86163 29.9839 2.83884 29.974 2.81973C29.9641 2.8006 29.9171 2.65995 29.8695 2.50714C29.7029 1.97257 29.3022 1.30361 29.1284 1.27018C29.0961 1.26395 29.0469 1.26817 29.0192 1.27953ZM23.0082 1.73553C22.9205 1.78277 22.8858 1.89237 22.9273 1.99093C22.9638 2.07753 22.9386 2.06659 23.5762 2.27226C23.8026 2.34531 24.1039 2.45117 24.2457 2.50754C24.3874 2.5639 24.5285 2.61 24.5592 2.61C24.6274 2.61 24.7525 2.49111 24.7525 2.42626C24.7525 2.34535 24.6993 2.2581 24.6275 2.22129C24.4462 2.1283 23.1807 1.69818 23.0971 1.70109C23.0824 1.70161 23.0424 1.7171 23.0082 1.73553ZM30.7085 2.18076C30.6122 2.24763 30.6053 2.31225 30.6679 2.55907C30.6994 2.6833 30.748 2.93719 30.7758 3.12324C30.8751 3.78689 30.997 4.19517 31.246 4.69796C31.8812 5.98072 32.9958 6.78308 34.2344 6.84915C34.5997 6.86863 34.8384 6.84164 34.9076 6.77303C34.9851 6.69616 34.9828 6.57011 34.9024 6.49037C34.8424 6.4309 34.8389 6.43041 34.5906 6.44625C33.3115 6.52795 32.1089 5.69508 31.5128 4.31462C31.3422 3.91937 31.2598 3.6028 31.1754 3.01826C31.1107 2.56973 31.0267 2.26312 30.9501 2.19591C30.8799 2.13432 30.784 2.1283 30.7085 2.18076ZM26.2185 2.31015C25.6675 2.37001 25.1995 2.7947 25.0731 3.34946C25.024 3.56498 25.0249 3.65092 25.0808 4.04617C25.3703 6.09617 26.2256 7.95444 27.5886 9.4947C28.1493 10.1284 28.8949 10.7578 29.6525 11.2369C31.0558 12.1243 32.7861 12.6236 34.4337 12.6165C34.8636 12.6147 35.0478 12.5912 35.1092 12.5303C35.1788 12.4613 35.1783 12.3314 35.1082 12.2619C35.0569 12.211 35.0432 12.2099 34.4507 12.2072C33.7562 12.2039 33.3717 12.1672 32.7593 12.0453C30.0705 11.5103 27.7709 9.70973 26.4592 7.11253C26.0048 6.2127 25.702 5.28192 25.5268 4.24582C25.4313 3.68135 25.4358 3.43951 25.546 3.22822C25.7682 2.80197 26.2447 2.60701 26.7135 2.7506C27.0661 2.85859 27.2775 3.13556 27.3412 3.57286C27.43 4.18267 27.5462 4.69505 27.7076 5.18788C27.82 5.531 27.9131 5.62131 28.0778 5.54691C28.1373 5.52001 28.1874 5.43743 28.1874 5.36613C28.1874 5.34348 28.1552 5.2311 28.1159 5.11644C27.9634 4.67132 27.8417 4.15323 27.7639 3.61756C27.7372 3.43394 27.6896 3.21579 27.6581 3.13278C27.4363 2.54846 26.8913 2.23703 26.2185 2.31015ZM21.1932 2.51696C21.1146 2.57832 21.0926 2.6801 21.1388 2.76878C21.1837 2.85472 21.1832 2.85458 21.6111 2.93852C22.3644 3.08626 23.1788 3.32553 23.9382 3.62209L24.3355 3.77725L24.4205 3.73603C24.5357 3.68016 24.5731 3.55077 24.5016 3.45524C24.3631 3.27024 22.7078 2.73257 21.6527 2.52993C21.2776 2.45787 21.2693 2.45764 21.1932 2.51696ZM31.9707 2.68083C31.9011 2.74983 31.8997 2.75564 31.9154 2.90829C32.011 3.83273 32.5462 4.7669 33.2726 5.27704C33.4708 5.41624 33.821 5.5788 34.032 5.62954C34.1217 5.6511 34.3194 5.6773 34.4714 5.68777C34.7077 5.70406 34.7706 5.71736 34.9041 5.77927C35.1002 5.8703 35.2809 6.05222 35.3879 6.26643C35.4574 6.40557 35.468 6.45132 35.4764 6.65139C35.4846 6.84418 35.4779 6.90129 35.4323 7.02951C35.338 7.2942 35.1227 7.51879 34.8756 7.61001C34.7068 7.67237 34.2969 7.70115 33.9758 7.67318C33.0483 7.59242 32.2332 7.16869 31.4906 6.38133C31.3177 6.19803 31.2921 6.17937 31.2131 6.17937C31.1053 6.17937 31.0105 6.26354 31.0107 6.35912C31.0108 6.45808 31.077 6.54725 31.3569 6.82505C32.1895 7.65151 33.1899 8.09236 34.2329 8.09236C34.8335 8.09236 35.1965 7.9749 35.4873 7.68646C35.7358 7.4401 35.9025 7.04395 35.9037 6.69721C35.9056 6.10674 35.465 5.51444 34.8924 5.33774C34.8039 5.31042 34.6157 5.28166 34.4454 5.26939C34.1216 5.24608 33.9644 5.20271 33.7193 5.06915C33.4027 4.89656 33.0732 4.58911 32.8441 4.25249C32.6922 4.02928 32.4937 3.61472 32.4263 3.37986C32.3852 3.23685 32.305 2.81695 32.3046 2.74302C32.3046 2.73278 32.2765 2.69867 32.2423 2.6672C32.1557 2.58763 32.0598 2.59243 31.9707 2.68083ZM33.3739 3.04054C33.3325 3.08158 33.3163 3.12287 33.3168 3.18635C33.318 3.3552 33.5175 3.73507 33.7185 3.95133C33.9218 4.16998 34.1815 4.2949 34.7897 4.46658C35.2322 4.59149 35.3967 4.65716 35.5821 4.78304C35.7609 4.90447 35.8591 4.91399 35.9424 4.81797C36.0296 4.71747 36.0177 4.61591 35.9072 4.51695C35.7155 4.34518 35.4049 4.20686 34.9219 4.07818C34.5907 3.98994 34.3457 3.90526 34.2337 3.84031C34.0324 3.72355 33.8387 3.47922 33.74 3.21765C33.6545 2.99082 33.4996 2.91589 33.3739 3.04054ZM29.7978 3.29604C29.6148 3.37503 29.5335 3.59398 29.6172 3.78175C29.6775 3.91678 29.7884 3.98644 29.9429 3.98633C30.1532 3.98617 30.3045 3.83968 30.3047 3.63611C30.3049 3.36773 30.0413 3.19085 29.7978 3.29604ZM18.3768 3.45167C18.0292 3.47162 17.309 3.55478 17.1748 3.59048C17.0169 3.63249 16.9562 3.76073 17.0346 3.88664C17.0603 3.928 17.109 3.96871 17.1427 3.97709C17.1764 3.98549 17.317 3.97525 17.4552 3.9543C18.2804 3.82928 19.5596 3.8076 20.3648 3.905C21.7932 4.0778 23.057 4.44164 24.3029 5.03883C24.5409 5.15288 24.7561 5.2462 24.7811 5.2462C24.8512 5.2462 24.9642 5.12092 24.9642 5.04321C24.9642 4.92199 24.8996 4.87228 24.484 4.674C22.5432 3.74811 20.4637 3.3319 18.3768 3.45167ZM26.2564 3.49471C26.1762 3.57419 26.1779 3.55537 26.2218 3.88293C26.3184 4.60315 26.5125 5.3366 26.7924 6.03939C27.9829 9.02842 30.5625 11.0772 33.563 11.4169C34.1358 11.4817 35.2438 11.4572 35.3971 11.3763C35.5202 11.3113 35.5423 11.1609 35.4432 11.0626C35.3845 11.0044 35.375 11.0027 35.1903 11.0173C34.741 11.0527 34.1594 11.06 33.8455 11.0341C32.3333 10.9095 30.9658 10.3607 29.724 9.38004C29.4054 9.12841 28.8004 8.53172 28.5367 8.20901C27.9142 7.44705 27.4508 6.64243 27.106 5.72438C26.8921 5.15486 26.7293 4.51854 26.6324 3.8722C26.6067 3.70034 26.5752 3.54048 26.5625 3.51697C26.5037 3.408 26.3548 3.39717 26.2564 3.49471ZM20.8353 4.14721C20.6133 4.2066 20.3956 4.3752 20.3165 4.54901L20.2727 4.64545L20.107 4.62975C19.2288 4.54663 18.3027 4.57499 17.424 4.71194C17.1092 4.761 17.0502 4.78657 17.0097 4.89155C16.9813 4.96541 17.0406 5.09878 17.1175 5.13347C17.1652 5.15505 17.2313 5.15253 17.4304 5.12157C18.1929 5.00301 19.0145 4.9638 19.7404 5.01137C20.1882 5.04071 20.2588 5.05611 20.2592 5.12454C20.2593 5.14654 20.2904 5.21825 20.3284 5.28387C20.5137 5.60425 20.8729 5.74999 21.2197 5.64552C21.6827 5.50609 21.9064 4.99301 21.694 4.55787C21.6302 4.4272 21.475 4.27769 21.3303 4.20749C21.1994 4.14396 20.9575 4.1145 20.8353 4.14721ZM20.8232 4.58957C20.6505 4.68072 20.5831 4.92906 20.6889 5.08471C20.7795 5.21806 20.8867 5.2752 21.0257 5.26416C21.2353 5.2475 21.3648 5.10557 21.3646 4.89274C21.3644 4.62485 21.0694 4.45968 20.8232 4.58957ZM30.172 4.61612C30.1046 4.64309 30.0459 4.72978 30.0461 4.80231C30.0463 4.91541 30.3747 5.56945 30.5003 5.70695C30.5629 5.77554 30.7086 5.77894 30.7747 5.71337C30.8726 5.61627 30.8633 5.57843 30.6232 5.09915C30.3692 4.59207 30.3319 4.55216 30.172 4.61612ZM22.1282 5.11684C22.0587 5.18578 22.0509 5.31117 22.1117 5.38307C22.1376 5.41373 22.296 5.48033 22.5388 5.56257C23.296 5.81902 24.094 6.18863 24.7575 6.59012C25.1383 6.82062 25.2139 6.83993 25.3084 6.73096C25.3901 6.63683 25.3821 6.53959 25.2852 6.45041C25.0639 6.24649 23.9374 5.65955 23.2513 5.39063C22.7799 5.20586 22.3358 5.05957 22.2463 5.05957C22.2131 5.05957 22.16 5.08534 22.1282 5.11684ZM18.271 5.76238C17.9928 5.78587 17.4335 5.86657 17.2403 5.91108C17.0835 5.94719 17.0517 5.96824 17.0127 6.06174C16.9773 6.14647 17.0178 6.2428 17.1105 6.29433C17.1678 6.32611 17.2097 6.32352 17.5693 6.26599C18.2141 6.16278 18.4454 6.14498 19.1297 6.14582C20.0103 6.14689 20.6149 6.22031 21.4445 6.42687C23.6764 6.98259 25.7963 8.4193 27.155 10.297C27.4441 10.6965 27.4739 10.7286 27.555 10.7286C27.7113 10.7286 27.8102 10.5943 27.7532 10.4593C27.688 10.3044 27.2123 9.68124 26.8457 9.27039C25.0343 7.24038 22.5458 5.97951 19.9178 5.76016C19.5868 5.73252 18.6089 5.73385 18.271 5.76238ZM28.1814 5.95529C28.1587 5.97239 28.1283 6.0201 28.1138 6.06134C28.09 6.12907 28.0966 6.1548 28.1828 6.32699C28.5436 7.04796 29.1037 7.79725 29.7266 8.39247L29.9553 8.6109L29.9271 8.7275C29.8392 9.0905 30.0055 9.45311 30.3401 9.62836C30.4419 9.68169 30.4862 9.69002 30.6694 9.6902C30.8536 9.69039 30.8985 9.68197 31.0143 9.62556C31.3892 9.44301 31.5506 8.99035 31.3763 8.61027C31.293 8.42863 31.1311 8.27774 30.9447 8.20798C30.7598 8.13876 30.5091 8.15199 30.3351 8.24011L30.2125 8.30218L29.9351 8.028C29.388 7.48713 28.9748 6.93134 28.586 6.21326C28.5169 6.08556 28.4439 5.96828 28.4238 5.95265C28.3754 5.91488 28.233 5.91642 28.1814 5.95529ZM18.6356 6.34003C18.5046 6.38219 18.3812 6.46109 18.2858 6.56372C18.1856 6.67143 18.096 6.83238 18.095 6.90621C18.0946 6.93521 18.0637 6.94869 17.971 6.96022C17.7936 6.98229 17.3228 7.06448 17.2123 7.09271C17.0817 7.12602 17.0123 7.19556 17.0123 7.2931C17.0123 7.39827 17.0432 7.4502 17.1262 7.48429C17.1837 7.50787 17.2425 7.50297 17.4859 7.45426C17.646 7.42225 17.8351 7.38924 17.9063 7.38091C17.9775 7.37259 18.0516 7.36141 18.0711 7.35607C18.094 7.34977 18.129 7.38621 18.1707 7.45967C18.2495 7.59869 18.394 7.7313 18.5386 7.79732C18.7089 7.87503 19.0044 7.86831 19.1801 7.78278C19.3351 7.70729 19.4893 7.55087 19.5609 7.39659C19.6379 7.23056 19.6331 6.93519 19.5506 6.7626C19.4777 6.61012 19.3254 6.45533 19.1777 6.38345C19.0632 6.32779 18.7514 6.3028 18.6356 6.34003ZM18.6917 6.76059C18.4587 6.8655 18.4098 7.15129 18.5928 7.3385C18.7375 7.48655 18.9582 7.48893 19.1043 7.34403C19.2873 7.16258 19.2361 6.86347 19.0032 6.7539C18.8988 6.70472 18.8115 6.70661 18.6917 6.76059ZM20.1232 6.98817C20.0834 7.00405 20.0237 7.12107 20.0237 7.18315C20.0237 7.21045 20.0531 7.26191 20.089 7.29751C20.1432 7.35126 20.1881 7.36703 20.3536 7.39034C20.4633 7.40578 20.7193 7.45487 20.9226 7.4994C22.1836 7.77574 23.4204 8.36044 24.4681 9.17554C24.7562 9.39968 24.8263 9.42108 24.9314 9.31689C24.9793 9.26939 24.9891 9.23953 24.9832 9.15942C24.9763 9.06407 24.9667 9.05315 24.7172 8.85551C24.0451 8.32306 23.1762 7.82849 22.341 7.50304C21.5512 7.19526 20.3203 6.90952 20.1232 6.98817ZM18.6591 8.04594C18.2941 8.06943 18.0488 8.10127 17.671 8.17429C17.1363 8.27767 17.0593 8.31658 17.0593 8.48355C17.0593 8.57728 17.1481 8.67559 17.2326 8.67559C17.2644 8.67559 17.4052 8.64867 17.5454 8.61578C18.0804 8.49031 18.4051 8.45702 19.0944 8.45702C19.6379 8.45702 19.7788 8.46465 20.0707 8.50979C20.6435 8.5984 20.5997 8.59788 20.6813 8.517C20.7612 8.43777 20.7701 8.37938 20.7175 8.27869C20.6776 8.20199 20.6301 8.18575 20.2825 8.12971C19.7874 8.0499 19.1273 8.01584 18.6591 8.04594ZM21.726 8.55876C21.6571 8.58629 21.6 8.67284 21.6 8.74948C21.6 8.84408 21.6864 8.92157 21.8705 8.99205C22.3003 9.15652 22.8326 9.44018 23.2939 9.75051C24.6328 10.6513 25.683 11.9411 26.2653 13.3998C26.6297 14.3124 26.7988 15.1682 26.7997 16.1026C26.8 16.5326 26.813 16.5923 26.9189 16.6512C26.9896 16.6905 27.086 16.6732 27.1501 16.6096C27.2765 16.4843 27.2103 15.2945 27.0326 14.4977C26.7047 13.0268 25.973 11.6851 24.8708 10.5338C24.3993 10.0414 23.6667 9.4686 23.065 9.12202C22.7033 8.91367 21.8815 8.53275 21.8031 8.53709C21.7884 8.5379 21.7537 8.54765 21.726 8.55876ZM30.5259 8.60339C30.3841 8.66726 30.3165 8.77397 30.3165 8.93403C30.3165 9.09902 30.3952 9.21242 30.5504 9.27119C30.6948 9.32589 30.8024 9.30226 30.9249 9.18897C31.0212 9.0999 31.0223 9.09696 31.0223 8.93541C31.0223 8.78589 31.0163 8.76564 30.9517 8.69759C30.8744 8.6161 30.7598 8.55867 30.6761 8.55946C30.6465 8.55974 30.579 8.57952 30.5259 8.60339ZM18.4827 9.21347C18.1298 9.24774 17.6532 9.34248 17.3589 9.43685C17.1703 9.49729 17.1225 9.68449 17.2667 9.797C17.3396 9.85383 17.3698 9.85159 17.7063 9.76462C19.211 9.37573 20.8303 9.63762 22.3527 10.5161C22.4885 10.5945 22.6134 10.6586 22.6303 10.6586C22.6976 10.6586 22.7961 10.5861 22.8196 10.5193C22.8676 10.3826 22.8217 10.3233 22.5395 10.1571C21.6354 9.625 20.6367 9.29986 19.6364 9.21202C19.3388 9.18592 18.7591 9.18662 18.4827 9.21347ZM31.8729 9.44856C31.8094 9.48518 31.7592 9.61823 31.7844 9.68346C31.8176 9.76955 31.8787 9.80834 32.123 9.89846C32.5835 10.0683 33.0739 10.1878 33.6338 10.2666C33.9516 10.3112 34.8842 10.3048 35.2336 10.2554C35.6344 10.1988 35.6871 10.1812 35.7316 10.0885C35.7772 9.99369 35.7525 9.90054 35.6645 9.83533C35.6051 9.7914 35.5994 9.79152 35.2425 9.84366C34.7406 9.91696 34.0394 9.91729 33.5548 9.84441C33.1365 9.78149 32.6891 9.66911 32.2995 9.52909C31.9861 9.41641 31.9428 9.40827 31.8729 9.44856ZM25.3995 9.63694C25.3262 9.67865 25.2952 9.73049 25.2944 9.81296C25.2937 9.87688 25.3275 9.92478 25.5081 10.1162C26.9835 11.6801 27.8552 13.6937 27.9497 15.756C28.0505 17.9576 27.32 19.9408 25.8524 21.4496C25.6037 21.7052 25.5524 21.77 25.5524 21.828C25.5524 21.9552 25.6304 22.0074 25.8076 21.9992C25.9139 21.9942 26.4211 21.4573 26.811 20.937C27.526 19.983 28.0117 18.8519 28.2326 17.6266C28.393 16.7367 28.4018 15.702 28.2569 14.7878C27.9705 12.9821 27.1426 11.2904 25.875 9.92074C25.5849 9.60724 25.5199 9.56847 25.3995 9.63694ZM18.6356 10.3477C18.3173 10.3796 17.8344 10.4823 17.5935 10.5692C17.493 10.6055 17.4477 10.6364 17.4214 10.6868C17.3603 10.804 17.4167 10.9328 17.5462 10.9719C17.5767 10.9811 17.6778 10.9633 17.7932 10.9284C19.1549 10.517 20.6666 10.7741 21.9772 11.6402C22.7163 12.1285 23.3607 12.8188 23.8226 13.6168C23.8842 13.7234 23.9599 13.8269 23.9906 13.8469C24.0635 13.8943 24.1974 13.8706 24.246 13.8019C24.3119 13.7087 24.2892 13.6208 24.128 13.345C23.1573 11.6833 21.4535 10.5541 19.6188 10.3566C19.4072 10.3338 18.8265 10.3285 18.6356 10.3477ZM23.5781 10.6244C23.099 10.7569 22.8651 11.2756 23.0831 11.7221C23.1446 11.848 23.3345 12.0243 23.477 12.0877C23.6227 12.1525 23.8734 12.1568 24.0295 12.0971L24.1416 12.0542L24.1876 12.1087C24.2129 12.1387 24.306 12.263 24.3943 12.3849C25.0088 13.2321 25.3851 14.1192 25.5772 15.1728C25.6406 15.5203 25.6668 16.3922 25.6253 16.7702C25.4761 18.1291 24.8333 19.3522 23.8338 20.1789C23.6946 20.2941 23.5744 20.4046 23.5667 20.4245C23.5163 20.5546 23.6102 20.6901 23.7508 20.6901C23.9036 20.6901 24.4527 20.204 24.8312 19.7336C26.2456 17.9759 26.4534 15.4367 25.3647 13.2131C25.1793 12.8344 24.9015 12.3824 24.6509 12.0516L24.4435 11.7778L24.4921 11.6489C24.556 11.4796 24.5563 11.2614 24.4929 11.0934C24.3589 10.7382 23.9411 10.5239 23.5781 10.6244ZM23.6039 11.0464C23.3564 11.1716 23.3436 11.5411 23.5819 11.6852C23.7474 11.7853 23.9903 11.7224 24.0875 11.5543C24.1815 11.3916 24.1359 11.1813 23.9821 11.0684C23.8977 11.0066 23.7049 10.9954 23.6039 11.0464ZM27.9158 11.1824C27.8832 11.2147 27.858 11.2669 27.858 11.3022C27.858 11.3365 27.9526 11.5548 28.0681 11.7873C28.4976 12.651 28.7791 13.4748 28.9502 14.3679C29.2613 15.9921 29.1357 17.7171 28.5992 19.1867C28.5043 19.4468 28.4981 19.5184 28.5645 19.589C28.656 19.6864 28.8071 19.6751 28.8786 19.5655C28.9285 19.4892 29.1118 18.934 29.2087 18.5656C29.7448 16.5286 29.5935 14.385 28.7699 12.3499C28.5983 11.9259 28.2497 11.2223 28.1833 11.166C28.1121 11.1057 27.9853 11.1135 27.9158 11.1824ZM18.7841 11.4981C18.3784 11.5335 17.85 11.6677 17.7475 11.7614C17.6725 11.83 17.6749 11.9709 17.7523 12.0477C17.826 12.1208 17.8666 12.1197 18.1274 12.0374C18.5739 11.8964 19.1505 11.855 19.6186 11.9303C19.8105 11.9612 19.845 11.9613 19.9035 11.9313C20.0412 11.8607 20.0531 11.6696 19.9246 11.5922C19.8011 11.5177 19.1628 11.465 18.7841 11.4981ZM20.9967 12.011C20.8828 12.0576 20.8364 12.2094 20.9058 12.3077C20.9251 12.335 21.0081 12.3946 21.0901 12.4401C21.9371 12.9099 22.7173 13.8062 23.071 14.7159C23.2319 15.1298 23.2919 15.4097 23.356 16.0449C23.3756 16.2402 23.505 16.3328 23.6503 16.2557C23.7383 16.209 23.7588 16.1062 23.7375 15.8194C23.6301 14.3752 22.7041 12.9376 21.3642 12.1351C21.1456 12.0041 21.0731 11.9796 20.9967 12.011ZM29.6578 12.0632C29.5895 12.102 29.5535 12.1555 29.5527 12.2193C29.5522 12.2501 29.6096 12.4443 29.6801 12.6509C29.8844 13.2492 30.0428 13.8877 30.1388 14.4997C30.1899 14.8254 30.2056 14.8638 30.3039 14.9041C30.4017 14.9443 30.5114 14.8989 30.5525 14.8013C30.5854 14.723 30.5664 14.5507 30.4673 14.0302C30.3307 13.312 29.9968 12.2167 29.8787 12.0992C29.8106 12.0313 29.7354 12.019 29.6578 12.0632ZM30.8997 12.2741C30.8175 12.3632 30.818 12.4116 30.9044 12.6941C31.1656 13.5485 31.3068 14.3114 31.3996 15.3711C31.4231 15.6393 31.514 15.7334 31.6823 15.6637C31.804 15.6132 31.817 15.5543 31.7874 15.1857C31.7255 14.4148 31.5669 13.5167 31.373 12.8399C31.2123 12.2788 31.1809 12.2216 31.0341 12.2216C30.975 12.2216 30.933 12.238 30.8997 12.2741ZM18.6435 12.6746C18.3992 12.7207 18.1643 12.8035 18.1018 12.8655C18.0243 12.9423 18.03 13.0478 18.1162 13.1333C18.1999 13.2162 18.2222 13.2169 18.4379 13.1431C19.0538 12.9323 19.8754 13.0614 20.5717 13.4785C21.5016 14.0355 21.9839 14.873 21.9839 15.931C21.9839 16.7722 21.687 17.4018 21.0926 17.8209C20.9896 17.8935 20.9757 17.9136 20.9694 17.9986C20.9633 18.0816 20.9722 18.1027 21.0359 18.1558C21.0764 18.1896 21.1272 18.2171 21.1489 18.217C21.2798 18.2163 21.7048 17.864 21.8942 17.5991C22.597 16.6166 22.5469 15.0327 21.7808 14.0124C21.654 13.8435 21.3667 13.5512 21.1882 13.4096C20.7805 13.0859 20.2354 12.8277 19.7073 12.708C19.4335 12.6459 18.8863 12.6287 18.6435 12.6746ZM32.2446 12.7688C32.1707 12.8421 32.1706 12.9191 32.2443 13.2285C32.4769 14.2051 32.5868 15.1859 32.5868 16.2838V16.8663L32.6446 16.9235C32.731 17.0092 32.8471 17.0019 32.9289 16.9055L32.9928 16.8302L32.9802 16.0015C32.9673 15.1459 32.9321 14.7171 32.8203 14.053C32.7287 13.5085 32.5991 12.9227 32.5482 12.8231C32.4855 12.7003 32.34 12.6743 32.2446 12.7688ZM33.5118 12.9217C33.3901 12.9703 33.3875 13.0522 33.4913 13.5864C33.5237 13.7532 33.5779 14.1206 33.6117 14.4029C33.6454 14.6852 33.6776 14.9484 33.6831 14.9879C33.7132 15.2028 34.0022 15.2256 34.0752 15.0188C34.1043 14.9363 33.9578 13.8364 33.8363 13.2261C33.8006 13.0462 33.7809 12.9959 33.7295 12.952C33.6637 12.8959 33.5989 12.8869 33.5118 12.9217ZM18.8356 13.8089C18.6271 13.8587 18.5469 13.9013 18.5077 13.9832C18.4742 14.0532 18.4736 14.0724 18.5026 14.1414C18.5528 14.2604 18.6471 14.2903 18.8049 14.2373C18.9642 14.1837 19.2964 14.1832 19.5061 14.2362C20.2826 14.4324 20.8586 15.1811 20.7583 15.8638C20.7051 16.2252 20.5399 16.5743 20.3077 16.8157C20.1665 16.9625 20.1488 17.0603 20.2461 17.1568C20.3774 17.2871 20.548 17.2026 20.7642 16.9003C21.0487 16.5024 21.2033 16.0008 21.1682 15.5893C21.1479 15.3513 21.1144 15.2274 21.0093 15.0014C20.7485 14.441 20.2577 14.0286 19.6432 13.8533C19.447 13.7974 18.9891 13.7722 18.8356 13.8089ZM24.2692 14.2619C24.1956 14.3348 24.1957 14.4094 24.2693 14.6408C24.6912 15.9665 24.5417 17.3721 23.8673 18.4223C23.6336 18.7861 23.2576 19.1863 22.9306 19.4191C22.6908 19.5898 22.6351 19.6485 22.6351 19.7305C22.6351 19.8352 22.7269 19.9296 22.8288 19.9296C23.0051 19.9296 23.6785 19.3536 23.9987 18.9289C24.8492 17.801 25.1192 16.3476 24.7528 14.8705C24.6606 14.4989 24.5988 14.3242 24.5363 14.2582C24.4666 14.1846 24.3454 14.1863 24.2692 14.2619ZM19.3532 15.2126C19.1934 15.2679 19.126 15.3912 19.1891 15.5123C19.2415 15.6127 19.3201 15.643 19.4429 15.6102C19.6289 15.5606 19.7132 15.6948 19.5884 15.8419C19.4755 15.975 19.4902 16.1092 19.6259 16.1848C19.8182 16.2918 20.1083 15.9375 20.0571 15.6581C19.9954 15.3208 19.6576 15.1071 19.3532 15.2126ZM30.3476 15.2893C30.3129 15.3085 30.2789 15.3426 30.2721 15.3651C30.2654 15.3877 30.2608 15.6895 30.262 16.036C30.2632 16.3824 30.2515 16.8128 30.2361 16.9925C30.1497 18.0017 29.933 18.9503 29.5843 19.8468C29.4653 20.1528 29.4581 20.2259 29.5391 20.3062C29.6125 20.3791 29.7181 20.381 29.7956 20.311C29.9369 20.1835 30.3098 19.0386 30.4673 18.2489C30.6251 17.4573 30.7035 16.4429 30.6631 15.7149C30.6467 15.4192 30.6374 15.364 30.5978 15.3247C30.5348 15.2622 30.4247 15.2466 30.3476 15.2893ZM31.4359 16.037C31.2732 16.0817 31.1819 16.1383 31.0587 16.2708C30.8403 16.5058 30.7959 16.8415 30.9445 17.1364C31.0008 17.2483 31.1823 17.4303 31.2827 17.4756C31.3428 17.5028 31.3444 17.5084 31.3291 17.6447C31.3204 17.7222 31.2858 17.9379 31.2522 18.1239C31.1735 18.5598 31.1737 18.6065 31.2549 18.6758C31.3713 18.7751 31.525 18.731 31.5728 18.5846C31.6003 18.5003 31.7051 17.899 31.7294 17.686C31.745 17.5491 31.7451 17.549 31.8424 17.5228C32.2934 17.4015 32.5295 16.8626 32.3188 16.4355C32.1635 16.1208 31.7731 15.9445 31.4359 16.037ZM31.4329 16.4734C31.1317 16.6747 31.2628 17.1441 31.6202 17.1441C31.7622 17.1441 31.8799 17.0799 31.9454 16.9667C32.09 16.7164 31.914 16.4209 31.6202 16.4209C31.5465 16.4209 31.4863 16.4378 31.4329 16.4734ZM23.0662 16.6164C22.8558 16.6846 22.6731 16.8471 22.5823 17.0468C22.5445 17.1301 22.5328 17.2025 22.5328 17.3541C22.5328 17.5825 22.5794 17.7127 22.7141 17.8606L22.7964 17.9509L22.6629 18.1068C22.5015 18.2951 22.2797 18.4843 22.0624 18.619C21.8371 18.7587 21.7901 18.8018 21.7743 18.8837C21.7553 18.9818 21.856 19.1037 21.9559 19.1037C22.1537 19.1037 22.7072 18.6914 23.0007 18.3253L23.1575 18.1298L23.3257 18.1189C23.4227 18.1127 23.5404 18.0877 23.6039 18.0598C23.7584 17.9919 23.9168 17.8386 23.9923 17.684C24.0469 17.5722 24.0566 17.5224 24.0566 17.3541C24.0566 17.1857 24.0469 17.1359 23.9923 17.0241C23.9168 16.8696 23.7584 16.7163 23.6039 16.6483C23.4665 16.5879 23.2023 16.5722 23.0662 16.6164ZM23.1174 17.0338C23.0157 17.0902 22.9174 17.2475 22.9174 17.3541C22.9174 17.5322 23.1139 17.7266 23.2939 17.7266C23.4738 17.7266 23.6703 17.5322 23.6703 17.3541C23.6703 17.176 23.4738 16.9816 23.2939 16.9816C23.2486 16.9816 23.1692 17.0051 23.1174 17.0338ZM26.8314 17.078C26.7585 17.1131 26.7359 17.1716 26.6809 17.4684C26.561 18.1144 26.3033 18.8139 25.9725 19.3911C25.6675 19.9231 25.3497 20.3286 24.8854 20.7778C24.7096 20.9479 24.5543 21.1084 24.5402 21.1344C24.4856 21.2356 24.5943 21.39 24.7201 21.39C24.8175 21.39 24.9697 21.2665 25.3409 20.886C26.13 20.0773 26.6839 19.0902 26.9749 17.9741C27.0724 17.5999 27.1357 17.2495 27.1166 17.1896C27.097 17.1286 26.9916 17.0504 26.9314 17.0524C26.9041 17.0532 26.859 17.0648 26.8314 17.078ZM28.3346 19.9487C28.302 19.9643 28.222 20.0861 28.1251 20.2679C27.8747 20.7377 27.6278 21.1215 27.3231 21.5149C27.1759 21.705 27.1647 21.7793 27.268 21.8817C27.3692 21.982 27.4451 21.9728 27.5647 21.8454C27.7767 21.6196 28.207 20.9644 28.4836 20.4463C28.647 20.1401 28.6509 20.0268 28.5007 19.9474C28.4391 19.9149 28.4046 19.9152 28.3346 19.9487Z" fill="#355F97"/>
<path d="M50.8298 22L46.2373 14.0204H43.7401V22H40.4679V2.05105H47.3567C48.8876 2.05105 50.1792 2.31895 51.2317 2.85475C52.3033 3.39055 53.0974 4.10814 53.6141 5.00752C54.1499 5.90689 54.4178 6.91152 54.4178 8.02139C54.4178 9.32261 54.0351 10.509 53.2696 11.5806C52.5233 12.6331 51.3656 13.3507 49.7965 13.7334L54.7335 22H50.8298ZM43.7401 11.4084H47.3567C48.5814 11.4084 49.4999 11.1022 50.1122 10.4899C50.7437 9.87755 51.0595 9.05471 51.0595 8.02139C51.0595 6.98806 50.7533 6.18436 50.1409 5.61029C49.5286 5.01708 48.6005 4.72048 47.3567 4.72048H43.7401V11.4084ZM71.4916 2.05105V4.72048H66.1815V22H62.9093V4.72048H57.5704V2.05105H71.4916ZM78.0778 2.05105V22H74.8056V2.05105H78.0778ZM96.3238 7.99268C96.3238 9.00687 96.0846 9.96366 95.6062 10.863C95.1278 11.7624 94.3624 12.4991 93.3099 13.0732C92.2574 13.6281 90.9084 13.9056 89.2627 13.9056H85.6461V22H82.3739V2.05105H89.2627C90.7936 2.05105 92.0852 2.31895 93.1377 2.85475C94.2093 3.37142 95.0034 4.07944 95.5201 4.97881C96.0559 5.87819 96.3238 6.88281 96.3238 7.99268ZM89.2627 11.2362C90.5065 11.2362 91.4346 10.9587 92.047 10.4038C92.6593 9.82971 92.9655 9.02601 92.9655 7.99268C92.9655 5.81121 91.7312 4.72048 89.2627 4.72048H85.6461V11.2362H89.2627ZM111.471 17.9241H103.119L101.683 22H98.2678L105.415 2.02235H109.204L116.351 22H112.907L111.471 17.9241ZM110.553 15.2547L107.309 5.98344L104.037 15.2547H110.553ZM134.241 2.05105L127.639 14.7667V22H124.367V14.7667L117.736 2.05105H121.382L126.003 11.839L130.624 2.05105H134.241Z" fill="#03377D"/>
</svg>
