<svg width="45" height="45" viewBox="0 0 45 45" fill="none" xmlns="http://www.w3.org/2000/svg">
<path d="M33.75 5.625H11.25C9.75816 5.625 8.32742 6.21763 7.27252 7.27252C6.21763 8.32742 5.625 9.75816 5.625 11.25V33.75C5.625 35.2418 6.21763 36.6726 7.27252 37.7275C8.32742 38.7824 9.75816 39.375 11.25 39.375H33.75C35.2418 39.375 36.6726 38.7824 37.7275 37.7275C38.7824 36.6726 39.375 35.2418 39.375 33.75V11.25C39.375 9.75816 38.7824 8.32742 37.7275 7.27252C36.6726 6.21763 35.2418 5.625 33.75 5.625ZM17.5781 29.5312C17.1609 29.5312 16.7531 29.4075 16.4062 29.1758C16.0593 28.944 15.789 28.6145 15.6293 28.2291C15.4697 27.8437 15.4279 27.4195 15.5093 27.0104C15.5907 26.6012 15.7916 26.2253 16.0866 25.9303C16.3816 25.6353 16.7574 25.4344 17.1666 25.353C17.5758 25.2716 17.9999 25.3134 18.3853 25.4731C18.7708 25.6327 19.1002 25.9031 19.332 26.25C19.5638 26.5969 19.6875 27.0047 19.6875 27.4219C19.6875 27.9813 19.4653 28.5178 19.0697 28.9134C18.6741 29.309 18.1376 29.5312 17.5781 29.5312ZM17.5781 19.6875C17.1609 19.6875 16.7531 19.5638 16.4062 19.332C16.0593 19.1002 15.789 18.7708 15.6293 18.3853C15.4697 17.9999 15.4279 17.5758 15.5093 17.1666C15.5907 16.7574 15.7916 16.3816 16.0866 16.0866C16.3816 15.7916 16.7574 15.5907 17.1666 15.5093C17.5758 15.4279 17.9999 15.4697 18.3853 15.6293C18.7708 15.789 19.1002 16.0593 19.332 16.4062C19.5638 16.7531 19.6875 17.1609 19.6875 17.5781C19.6875 18.1376 19.4653 18.6741 19.0697 19.0697C18.6741 19.4653 18.1376 19.6875 17.5781 19.6875ZM27.4219 29.5312C27.0047 29.5312 26.5969 29.4075 26.25 29.1758C25.9031 28.944 25.6327 28.6145 25.4731 28.2291C25.3134 27.8437 25.2716 27.4195 25.353 27.0104C25.4344 26.6012 25.6353 26.2253 25.9303 25.9303C26.2253 25.6353 26.6012 25.4344 27.0104 25.353C27.4195 25.2716 27.8437 25.3134 28.2291 25.4731C28.6145 25.6327 28.944 25.9031 29.1758 26.25C29.4075 26.5969 29.5312 27.0047 29.5312 27.4219C29.5312 27.9813 29.309 28.5178 28.9134 28.9134C28.5178 29.309 27.9813 29.5312 27.4219 29.5312ZM27.4219 19.6875C27.0047 19.6875 26.5969 19.5638 26.25 19.332C25.9031 19.1002 25.6327 18.7708 25.4731 18.3853C25.3134 17.9999 25.2716 17.5758 25.353 17.1666C25.4344 16.7574 25.6353 16.3816 25.9303 16.0866C26.2253 15.7916 26.6012 15.5907 27.0104 15.5093C27.4195 15.4279 27.8437 15.4697 28.2291 15.6293C28.6145 15.789 28.944 16.0593 29.1758 16.4062C29.4075 16.7531 29.5312 17.1609 29.5312 17.5781C29.5312 18.1376 29.309 18.6741 28.9134 19.0697C28.5178 19.4653 27.9813 19.6875 27.4219 19.6875Z" fill="#03377D"/>
</svg>
