<svg width="24" height="24" viewBox="0 0 24 24" fill="none" xmlns="http://www.w3.org/2000/svg">
<path d="M12.0001 20.1601C7.48809 20.1601 3.84009 16.5121 3.84009 12.0001C3.84009 7.48809 7.48809 3.84009 12.0001 3.84009C16.5121 3.84009 20.1601 7.48809 20.1601 12.0001C20.1601 16.5121 16.5121 20.1601 12.0001 20.1601ZM12.0001 4.80009C8.01609 4.80009 4.80009 8.01609 4.80009 12.0001C4.80009 15.9841 8.01609 19.2001 12.0001 19.2001C15.9841 19.2001 19.2001 15.9841 19.2001 12.0001C19.2001 8.01609 15.9841 4.80009 12.0001 4.80009Z" fill="#848484"/>
<path d="M11.04 15.5519L6.86401 11.3759L7.53601 10.7039L11.04 14.2079L16.464 8.78394L17.136 9.45594L11.04 15.5519Z" fill="#848484"/>
</svg>
