<svg width="56" height="56" viewBox="0 0 56 56" fill="none" xmlns="http://www.w3.org/2000/svg">
<rect x="0.5" y="0.5" width="55" height="55" rx="11.5" fill="#EBF8FF"/>
<rect x="0.5" y="0.5" width="55" height="55" rx="11.5" stroke="#A1DEFF"/>
<path d="M41.125 28.875C40.8222 27.7438 40.2587 26.6993 39.4797 25.825C38.7006 24.9508 37.7277 24.271 36.6388 23.8403C35.5499 23.4096 34.3753 23.2398 33.209 23.3446C32.0427 23.4494 30.9172 23.8258 29.9225 24.4437L31.9712 16.2637C32.0221 16.0605 32.0078 15.8464 31.9304 15.6517C31.853 15.4571 31.7165 15.2916 31.54 15.1787C30.6895 14.6417 29.7396 14.2812 28.7469 14.1187C27.7542 13.9563 26.739 13.9952 25.7617 14.2331C24.7843 14.471 23.8648 14.9031 23.0579 15.5036C22.251 16.1042 21.5731 16.8609 21.0646 17.7288C20.5561 18.5967 20.2273 19.558 20.0979 20.5555C19.9685 21.5531 20.0411 22.5664 20.3114 23.5353C20.5817 24.5042 21.0441 25.4089 21.6711 26.1954C22.2981 26.982 23.0769 27.6343 23.9612 28.1137L15.8525 30.43C15.651 30.4873 15.4727 30.6065 15.3426 30.7707C15.2125 30.9349 15.1373 31.1357 15.1275 31.345C15.0505 33.0524 15.559 34.7348 16.5688 36.1138C17.5786 37.4927 19.029 38.4854 20.68 38.9275C21.3168 39.0984 21.9732 39.1854 22.6325 39.1862C23.6372 39.1836 24.6311 38.9793 25.5554 38.5855C26.4798 38.1918 27.3157 37.6165 28.0136 36.8938C28.7116 36.1712 29.2574 35.3158 29.6188 34.3783C29.9802 33.4408 30.1498 32.4404 30.1175 31.4362L36.1775 37.3012C36.3282 37.447 36.5209 37.5418 36.7284 37.572C36.9359 37.6023 37.1476 37.5666 37.3337 37.47C38.85 36.6833 40.0523 35.4025 40.7417 33.8396C41.4311 32.2766 41.5663 30.5252 41.125 28.875ZM28.305 30.4812C27.8142 30.5416 27.3166 30.455 26.875 30.2325C26.4334 30.01 26.0677 29.6616 25.8242 29.2313C25.5806 28.801 25.4702 28.3081 25.5067 27.815C25.5433 27.3219 25.7253 26.8507 26.0297 26.461C26.334 26.0713 26.7471 25.7807 27.2167 25.6258C27.6863 25.4709 28.1912 25.4587 28.6677 25.5907C29.1442 25.7228 29.5708 25.9932 29.8936 26.3678C30.2164 26.7423 30.4209 27.2042 30.4812 27.695C30.5621 28.353 30.3783 29.0163 29.9701 29.5388C29.562 30.0613 28.963 30.4003 28.305 30.4812Z" fill="#03377D"/>
</svg>
