<svg width="1258" height="192" viewBox="0 0 1258 192" fill="none" xmlns="http://www.w3.org/2000/svg">
<path d="M115.508 2.68014V32.9641H37.5201V80.9361H97.2841V110.684H37.5201V189.744H5.81741e-05V2.68014H115.508ZM228.945 191.62C211.436 191.62 195.356 187.511 180.705 179.292C166.055 171.073 154.441 159.728 145.865 145.256C137.289 130.605 133.001 114.079 133.001 95.6761C133.001 77.4521 137.289 61.1041 145.865 46.6321C154.441 31.9815 166.055 20.5468 180.705 12.3281C195.356 4.10947 211.436 0.000139475 228.945 0.000139475C246.633 0.000139475 262.713 4.10947 277.185 12.3281C291.836 20.5468 303.36 31.9815 311.757 46.6321C320.333 61.1041 324.621 77.4521 324.621 95.6761C324.621 114.079 320.333 130.605 311.757 145.256C303.36 159.728 291.836 171.073 277.185 179.292C262.535 187.511 246.455 191.62 228.945 191.62ZM228.945 158.12C240.201 158.12 250.117 155.619 258.693 150.616C267.269 145.435 273.969 138.109 278.793 128.64C283.617 119.171 286.029 108.183 286.029 95.6761C286.029 83.1695 283.617 72.2708 278.793 62.9801C273.969 53.5108 267.269 46.2748 258.693 41.2721C250.117 36.2695 240.201 33.7681 228.945 33.7681C217.689 33.7681 207.684 36.2695 198.929 41.2721C190.353 46.2748 183.653 53.5108 178.829 62.9801C174.005 72.2708 171.593 83.1695 171.593 95.6761C171.593 108.183 174.005 119.171 178.829 128.64C183.653 138.109 190.353 145.435 198.929 150.616C207.684 155.619 217.689 158.12 228.945 158.12ZM449.015 189.744L407.743 116.848H390.055V189.744H352.535V2.68014H422.751C437.223 2.68014 449.551 5.2708 459.735 10.4521C469.919 15.4548 477.513 22.3335 482.515 31.0881C487.697 39.6641 490.287 49.3121 490.287 60.0321C490.287 72.3601 486.714 83.5268 479.567 93.5321C472.421 103.359 461.79 110.148 447.675 113.9L492.431 189.744H449.015ZM390.055 88.7081H421.411C431.595 88.7081 439.189 86.2961 444.191 81.4721C449.194 76.4695 451.695 69.5908 451.695 60.8361C451.695 52.2601 449.194 45.6495 444.191 41.0041C439.189 36.1801 431.595 33.7681 421.411 33.7681H390.055V88.7081ZM651.523 2.68014V32.9641H601.675V189.744H564.155V32.9641H514.307V2.68014H651.523ZM716.418 2.68014V189.744H678.898V2.68014H716.418ZM889.9 60.5681C889.9 70.5735 887.488 79.9535 882.664 88.7081C878.019 97.4628 870.604 104.52 860.42 109.88C850.415 115.24 837.73 117.92 822.364 117.92H791.008V189.744H753.488V2.68014H822.364C836.836 2.68014 849.164 5.18147 859.348 10.1841C869.532 15.1868 877.126 22.0655 882.128 30.8201C887.31 39.5748 889.9 49.4908 889.9 60.5681ZM820.756 87.6361C831.119 87.6361 838.802 85.3135 843.804 80.6681C848.807 75.8441 851.308 69.1441 851.308 60.5681C851.308 42.3441 841.124 33.2321 820.756 33.2321H791.008V87.6361H820.756ZM1031.24 154.1H956.739L944.411 189.744H905.015L972.283 2.41212H1015.97L1083.24 189.744H1043.57L1031.24 154.1ZM1021.06 124.084L993.991 45.8281L966.923 124.084H1021.06ZM1257.12 2.68014L1193.87 124.62V189.744H1156.35V124.62L1092.83 2.68014H1135.18L1175.38 88.1721L1215.31 2.68014H1257.12Z" fill="url(#paint0_linear_13230_48)"/>
<defs>
<linearGradient id="paint0_linear_13230_48" x1="620.887" y1="1.74414" x2="620.387" y2="189.744" gradientUnits="userSpaceOnUse">
<stop stop-color="#044295"/>
<stop offset="0.399038" stop-color="#044295" stop-opacity="0.7"/>
<stop offset="1" stop-color="#034296" stop-opacity="0"/>
</linearGradient>
</defs>
</svg>
