<svg width="203" height="34" viewBox="0 0 203 34" fill="none" xmlns="http://www.w3.org/2000/svg">
<path d="M21.2596 3.5092V7.51334H8.55828V16.3397H18.461V20.3438H8.55828V33.4326H3.64998V3.5092H21.2596Z" fill="white"/>
<path fill-rule="evenodd" clip-rule="evenodd" d="M39.4991 0.0206647C39.1418 0.0602653 38.8086 0.143969 38.7362 0.212357C38.5825 0.357323 38.601 0.57525 38.7767 0.690861C38.8633 0.74794 38.892 0.748082 39.2458 0.693556C39.4531 0.661613 39.7567 0.624778 39.9205 0.611731C40.1658 0.592197 40.2328 0.573513 40.2999 0.506153C40.4125 0.392953 40.4102 0.198637 40.2947 0.0826714C40.2155 0.00308024 40.183 -0.00386841 39.9154 0.00130768C39.7544 0.00442751 39.5671 0.0131488 39.4991 0.0206647ZM37.0641 1.43888C36.8903 1.50308 36.8154 1.70002 36.9014 1.86693C36.9453 1.95223 37.0188 1.99488 37.3127 2.10567C37.7096 2.25521 37.7947 2.25188 37.9208 2.08167C37.9748 2.00888 37.9852 1.95794 37.9666 1.85839C37.9375 1.70279 37.8321 1.62982 37.4522 1.50248C37.1776 1.41044 37.1523 1.4063 37.0641 1.43888ZM39.7461 1.75146C39.717 1.75721 39.575 1.78128 39.4305 1.80496C39.1638 1.84874 38.7947 1.96198 38.5705 2.06887C38.3565 2.17087 38.3133 2.42407 38.4828 2.58269C38.5832 2.67671 38.6999 2.67341 38.9766 2.56875C39.3248 2.43708 39.706 2.37096 40.1167 2.37096C41.346 2.37096 42.3656 2.9978 42.9133 4.09042C43.0779 4.41856 43.1633 4.74154 43.2745 5.45516C43.4818 6.78606 43.803 7.78901 44.3818 8.91197C45.1825 10.4657 46.4111 11.8106 47.8269 12.6834C49.564 13.7543 51.611 14.1482 53.5621 13.7872C54.1165 13.6846 54.2755 13.6254 54.3414 13.4974C54.4334 13.3187 54.3503 13.122 54.1581 13.0633C54.1171 13.0508 53.9424 13.0739 53.7699 13.1146C52.7496 13.3553 51.4443 13.3483 50.3894 13.0966C48.7102 12.6958 47.0979 11.6459 45.9441 10.2021C45.4824 9.6244 45.017 8.88031 44.738 8.27383C44.2726 7.26219 44.0301 6.39842 43.8226 5.01218C43.6921 4.13977 43.3648 3.46007 42.7837 2.85464C42.1976 2.24386 41.4973 1.89441 40.6119 1.77068C40.3659 1.73629 39.8782 1.72548 39.7461 1.75146ZM44.0288 1.94447C43.9872 1.96177 43.9277 2.0125 43.8965 2.05724C43.8042 2.18962 43.8268 2.32927 43.9728 2.52727C44.3594 3.0519 44.6217 3.59638 44.8096 4.26474C44.866 4.46522 44.8657 4.47607 44.8041 4.50893C44.6523 4.59001 44.411 4.89363 44.334 5.10039C44.2309 5.37735 44.2449 5.78108 44.3658 6.01723C44.4842 6.24867 44.7058 6.47024 44.9287 6.58025C45.0989 6.66417 45.1715 6.67846 45.4278 6.67846C45.7021 6.67846 45.7467 6.66814 45.9496 6.55764C46.4684 6.27501 46.6943 5.73439 46.5261 5.17803C46.4002 4.76168 46.0379 4.43218 45.6288 4.36202C45.5513 4.34872 45.4758 4.31409 45.461 4.28505C45.4461 4.25598 45.3756 4.04224 45.3042 3.81002C45.0544 2.99766 44.4532 1.98105 44.1927 1.93025C44.1441 1.92078 44.0704 1.9272 44.0288 1.94447ZM35.0122 2.63742C34.8807 2.70922 34.8287 2.87577 34.891 3.02556C34.9458 3.15716 34.9079 3.14053 35.8643 3.45308C36.2039 3.56409 36.6558 3.72497 36.8685 3.81062C37.0812 3.89628 37.2928 3.96633 37.3388 3.96633C37.4412 3.96633 37.6288 3.78566 37.6288 3.68711C37.6288 3.56416 37.5489 3.43156 37.4413 3.37562C37.1693 3.2343 35.2711 2.58066 35.1456 2.5851C35.1236 2.58588 35.0635 2.60942 35.0122 2.63742ZM46.5627 3.31404C46.4183 3.41565 46.4079 3.51385 46.5019 3.88894C46.5492 4.07772 46.622 4.46355 46.6638 4.74629C46.8126 5.75481 46.9955 6.37527 47.3689 7.13934C48.3218 9.08871 49.9937 10.308 51.8516 10.4084C52.3996 10.438 52.7576 10.397 52.8614 10.2927C52.9777 10.1759 52.9742 9.98438 52.8535 9.8632C52.7636 9.77284 52.7583 9.77209 52.386 9.79616C50.4672 9.92032 48.6633 8.65462 47.7692 6.55678C47.5132 5.95615 47.3897 5.47505 47.2631 4.58675C47.166 3.90514 47.04 3.43919 46.9251 3.33705C46.8199 3.24345 46.676 3.2343 46.5627 3.31404ZM39.8277 3.51066C39.0013 3.60163 38.2992 4.24701 38.1096 5.09007C38.036 5.41758 38.0374 5.54819 38.1211 6.14883C38.5555 9.26416 39.8385 12.0881 41.8829 14.4288C42.7239 15.3918 43.8424 16.3482 44.9787 17.0763C47.0836 18.4249 49.6792 19.1837 52.1505 19.173C52.7954 19.1702 53.0717 19.1344 53.1637 19.0419C53.2681 18.9371 53.2675 18.7397 53.1623 18.6341C53.0854 18.5567 53.0648 18.555 52.176 18.5508C51.1343 18.5459 50.5576 18.49 49.6389 18.3048C45.6058 17.4918 42.1564 14.7556 40.1888 10.8087C39.5071 9.44125 39.053 8.02676 38.7901 6.45223C38.6469 5.59442 38.6538 5.22692 38.819 4.90583C39.1523 4.25807 39.8671 3.96179 40.5703 4.18C41.0992 4.34411 41.4163 4.76501 41.5118 5.42957C41.6449 6.35626 41.8194 7.13491 42.0615 7.88385C42.2301 8.40528 42.3697 8.54252 42.6167 8.42946C42.706 8.38859 42.7811 8.26308 42.7811 8.15474C42.7811 8.12032 42.7328 7.94954 42.6739 7.77529C42.445 7.09886 42.2625 6.31152 42.1458 5.49749C42.1058 5.21845 42.0344 4.88693 41.9871 4.76079C41.6544 3.87281 40.8369 3.39955 39.8277 3.51066ZM32.2898 3.82495C32.1718 3.91819 32.1389 4.07287 32.2083 4.20762C32.2755 4.33823 32.2748 4.33802 32.9167 4.46558C34.0465 4.6901 35.2683 5.0537 36.4073 5.50437L37.0032 5.74017L37.1307 5.67752C37.3036 5.59261 37.3596 5.39599 37.2524 5.25082C37.0447 4.96968 34.5617 4.1526 32.9791 3.84466C32.4164 3.73514 32.4039 3.73479 32.2898 3.82495ZM48.456 4.07397C48.3516 4.17883 48.3495 4.18766 48.3732 4.41963C48.5164 5.82447 49.3192 7.2441 50.4089 8.01935C50.7062 8.23089 51.2316 8.47793 51.548 8.55504C51.6825 8.5878 51.9791 8.62761 52.2072 8.64353C52.5616 8.66827 52.6559 8.68848 52.8561 8.78257C53.1503 8.92091 53.4214 9.19737 53.5819 9.52289C53.6862 9.73433 53.7019 9.80386 53.7146 10.1079C53.7269 10.4009 53.7169 10.4877 53.6484 10.6825C53.507 11.0848 53.184 11.4261 52.8135 11.5647C52.5602 11.6594 51.9453 11.7032 51.4638 11.6607C50.0724 11.538 48.8497 10.894 47.7359 9.6975C47.4766 9.41895 47.4381 9.39059 47.3196 9.39059C47.158 9.39059 47.0158 9.5185 47.016 9.66375C47.0162 9.81414 47.1156 9.94964 47.5354 10.3718C48.7842 11.6278 50.2849 12.2977 51.8494 12.2977C52.7502 12.2977 53.2947 12.1192 53.731 11.6809C54.1037 11.3065 54.3538 10.7045 54.3555 10.1775C54.3584 9.28022 53.6976 8.38011 52.8386 8.1116C52.7058 8.07008 52.4236 8.02637 52.1681 8.00772C51.6824 7.9723 51.4465 7.9064 51.079 7.70343C50.604 7.44115 50.1098 6.97392 49.7662 6.46237C49.5384 6.12316 49.2406 5.49317 49.1394 5.13627C49.0778 4.91894 48.9575 4.28083 48.9569 4.16848C48.9568 4.15292 48.9147 4.10109 48.8634 4.05326C48.7335 3.93233 48.5897 3.93964 48.456 4.07397ZM50.5609 4.62061C50.4988 4.68297 50.4745 4.74572 50.4752 4.84219C50.477 5.09879 50.7762 5.67607 51.0778 6.00472C51.3827 6.33698 51.7722 6.52683 52.6846 6.78772C53.3483 6.97754 53.595 7.07734 53.8731 7.26864C54.1414 7.45317 54.2887 7.46763 54.4136 7.32171C54.5444 7.16898 54.5266 7.01466 54.3609 6.86426C54.0733 6.60323 53.6073 6.39303 52.8828 6.19747C52.386 6.06339 52.0186 5.9347 51.8505 5.836C51.5486 5.65856 51.2581 5.28726 51.1101 4.88977C50.9818 4.54506 50.7494 4.43119 50.5609 4.62061ZM45.1967 5.00889C44.9223 5.12893 44.8002 5.46165 44.9258 5.74701C45.0162 5.95221 45.1826 6.05807 45.4143 6.05789C45.7298 6.05765 45.9568 5.83504 45.957 5.52568C45.9574 5.11783 45.5619 4.84903 45.1967 5.00889ZM28.0652 5.24539C27.5438 5.2757 26.4634 5.40209 26.2622 5.45633C26.0253 5.52018 25.9342 5.71507 26.0518 5.90641C26.0905 5.96926 26.1635 6.03113 26.2141 6.04386C26.2646 6.05662 26.4756 6.04105 26.6828 6.00922C27.9206 5.81923 29.8395 5.78629 31.0472 5.93431C33.1899 6.19691 35.0855 6.74982 36.9544 7.65734C37.3113 7.83067 37.6341 7.97248 37.6717 7.97248C37.7768 7.97248 37.9464 7.7821 37.9464 7.66401C37.9464 7.47979 37.8494 7.40424 37.226 7.10293C34.3148 5.69589 31.1955 5.06338 28.0652 5.24539ZM39.8846 5.3108C39.7644 5.43159 39.7669 5.40298 39.8327 5.90077C39.9776 6.99526 40.2687 8.10986 40.6886 9.17787C42.4744 13.7202 46.3437 16.8337 50.8445 17.3499C51.7038 17.4484 53.3657 17.4111 53.5957 17.2882C53.7803 17.1894 53.8134 16.9608 53.6647 16.8115C53.5767 16.723 53.5625 16.7205 53.2854 16.7426C52.6115 16.7965 51.7391 16.8075 51.2683 16.7682C48.9999 16.5788 46.9487 15.7448 45.0861 14.2545C44.6081 13.8722 43.7006 12.9654 43.3051 12.475C42.3712 11.317 41.6762 10.0943 41.159 8.69915C40.8381 7.83368 40.594 6.86668 40.4487 5.88446C40.41 5.62328 40.3628 5.38036 40.3437 5.34462C40.2555 5.17902 40.0321 5.16257 39.8846 5.3108ZM31.753 6.30238C31.4199 6.39264 31.0933 6.64885 30.9748 6.91298L30.909 7.05954L30.6605 7.03568C29.3431 6.90936 27.9541 6.95247 26.636 7.16058C26.1638 7.23514 26.0754 7.27399 26.0146 7.43353C25.9719 7.54577 26.061 7.74845 26.1762 7.80117C26.2478 7.83397 26.3469 7.83014 26.6456 7.78309C27.7893 7.60292 29.0217 7.54332 30.1106 7.61561C30.7823 7.66021 30.8882 7.68361 30.8887 7.78759C30.8889 7.82103 30.9357 7.93001 30.9926 8.02973C31.2706 8.51661 31.8094 8.73808 32.3296 8.57932C33.0241 8.36742 33.3597 7.58771 33.041 6.92645C32.9453 6.72788 32.7125 6.50066 32.4955 6.39399C32.2991 6.29745 31.9363 6.25267 31.753 6.30238ZM31.7348 6.97463C31.4757 7.11314 31.3746 7.49054 31.5333 7.72708C31.6692 7.92972 31.8301 8.01655 32.0386 7.99978C32.3529 7.97446 32.5472 7.75877 32.5469 7.43534C32.5465 7.02823 32.1041 6.77723 31.7348 6.97463ZM45.758 7.01497C45.6569 7.05596 45.5689 7.1877 45.5691 7.29792C45.5695 7.4698 46.062 8.46371 46.2504 8.67267C46.3444 8.7769 46.5629 8.78208 46.6621 8.68242C46.8089 8.53486 46.7949 8.47736 46.4348 7.74902C46.0537 6.97842 45.9978 6.91776 45.758 7.01497ZM33.6924 7.77589C33.588 7.88066 33.5763 8.07121 33.6675 8.18048C33.7063 8.22707 33.9441 8.32828 34.3082 8.45325C35.4439 8.84298 36.6409 9.40466 37.6362 10.0148C38.2075 10.3651 38.3209 10.3944 38.4627 10.2288C38.5852 10.0858 38.5731 9.93801 38.4279 9.80247C38.0958 9.49258 36.4061 8.60063 35.377 8.19197C34.6698 7.91118 34.0037 7.68886 33.8695 7.68886C33.8197 7.68886 33.74 7.72803 33.6924 7.77589ZM27.9064 8.7569C27.4892 8.79261 26.6503 8.91524 26.3605 8.98288C26.1253 9.03776 26.0776 9.06974 26.019 9.21183C25.966 9.3406 26.0268 9.48698 26.1658 9.5653C26.2516 9.61358 26.3146 9.60965 26.854 9.52222C27.8211 9.36538 28.168 9.33833 29.1945 9.33961C30.5154 9.34124 31.4224 9.45281 32.6667 9.7667C36.0145 10.6112 39.1944 12.7945 41.2326 15.648C41.6662 16.2551 41.7108 16.3039 41.8325 16.3039C42.067 16.3039 42.2152 16.0999 42.1299 15.8947C42.032 15.6593 41.3184 14.7123 40.7685 14.0879C38.0514 11.003 34.3187 9.08686 30.3767 8.75354C29.8802 8.71152 28.4133 8.71355 27.9064 8.7569ZM42.7721 9.05006C42.738 9.07605 42.6924 9.14855 42.6706 9.21123C42.6349 9.31415 42.645 9.35325 42.7742 9.61493C43.3154 10.7106 44.1555 11.8492 45.09 12.7538L45.4329 13.0857L45.3906 13.2629C45.2589 13.8145 45.5082 14.3656 46.0101 14.6319C46.1628 14.7129 46.2293 14.7256 46.5041 14.7259C46.7804 14.7262 46.8478 14.7134 47.0215 14.6276C47.5838 14.3502 47.8259 13.6623 47.5645 13.0848C47.4395 12.8087 47.1967 12.5794 46.9171 12.4734C46.6397 12.3682 46.2637 12.3883 46.0026 12.5222L45.8188 12.6166L45.4027 12.1999C44.582 11.378 43.9623 10.5333 43.3791 9.4421C43.2753 9.24803 43.1659 9.06981 43.1358 9.04606C43.063 8.98866 42.8495 8.991 42.7721 9.05006ZM28.4534 9.63475C28.2569 9.69881 28.0718 9.81871 27.9286 9.97467C27.7785 10.1384 27.644 10.3829 27.6425 10.4951C27.6419 10.5392 27.5956 10.5597 27.4565 10.5772C27.1904 10.6108 26.4843 10.7357 26.3184 10.7786C26.1225 10.8292 26.0184 10.9349 26.0184 11.0831C26.0184 11.2429 26.0648 11.3218 26.1893 11.3736C26.2755 11.4095 26.3637 11.402 26.7288 11.328C26.9689 11.2794 27.2527 11.2292 27.3594 11.2165C27.4662 11.2039 27.5774 11.1869 27.6066 11.1788C27.6409 11.1692 27.6935 11.2246 27.756 11.3362C27.8742 11.5475 28.091 11.749 28.308 11.8493C28.5633 11.9674 29.0066 11.9572 29.2701 11.8272C29.5026 11.7125 29.734 11.4748 29.8413 11.2404C29.9569 10.988 29.9497 10.5392 29.8259 10.2769C29.7165 10.0452 29.4882 9.80995 29.2665 9.70072C29.0949 9.61613 28.6271 9.57817 28.4534 9.63475ZM28.5375 10.2739C28.188 10.4333 28.1147 10.8676 28.3892 11.1521C28.6063 11.3771 28.9373 11.3807 29.1565 11.1605C29.431 10.8847 29.3542 10.4302 29.0049 10.2637C28.8481 10.1889 28.7173 10.1918 28.5375 10.2739ZM30.6848 10.6197C30.6251 10.6438 30.5355 10.8217 30.5355 10.916C30.5355 10.9575 30.5796 11.0357 30.6334 11.0898C30.7148 11.1715 30.7822 11.1954 31.0305 11.2309C31.1949 11.2543 31.579 11.3289 31.8838 11.3966C33.7753 11.8165 35.6306 12.7051 37.2021 13.9438C37.6343 14.2844 37.7394 14.3169 37.897 14.1586C37.9689 14.0864 37.9836 14.041 37.9748 13.9193C37.9644 13.7744 37.95 13.7578 37.5758 13.4574C36.5677 12.6483 35.2643 11.8967 34.0116 11.4021C32.8268 10.9344 30.9805 10.5002 30.6848 10.6197ZM28.4887 12.2272C27.9411 12.2629 27.5732 12.3112 27.0065 12.4222C26.2044 12.5793 26.089 12.6384 26.089 12.8922C26.089 13.0346 26.2221 13.184 26.349 13.184C26.3966 13.184 26.6078 13.1431 26.8181 13.0931C27.6206 12.9025 28.1076 12.8519 29.1416 12.8519C29.9569 12.8519 30.1683 12.8635 30.6061 12.9321C31.4652 13.0667 31.3996 13.0659 31.5219 12.943C31.6418 12.8226 31.6551 12.7339 31.5763 12.5809C31.5163 12.4643 31.4451 12.4396 30.9237 12.3545C30.1811 12.2332 29.191 12.1814 28.4887 12.2272ZM33.089 13.0065C32.9857 13.0483 32.8999 13.1798 32.8999 13.2963C32.8999 13.4401 33.0296 13.5578 33.3058 13.6649C33.9504 13.9149 34.7489 14.3459 35.4408 14.8175C37.4492 16.1865 39.0245 18.1465 39.898 20.3632C40.4445 21.75 40.6983 23.0506 40.6995 24.4706C40.7001 25.124 40.7195 25.2148 40.8784 25.3044C40.9844 25.3641 41.1289 25.3378 41.2251 25.2411C41.4147 25.0507 41.3154 23.2425 41.0489 22.0316C40.5571 19.7964 39.4595 17.7575 37.8062 16.0079C37.099 15.2596 36.0001 14.3891 35.0975 13.8624C34.5549 13.5458 33.3222 12.9669 33.2046 12.9735C33.1826 12.9748 33.1306 12.9896 33.089 13.0065ZM46.2889 13.0743C46.0761 13.1714 45.9748 13.3335 45.9748 13.5768C45.9748 13.8275 46.0928 13.9998 46.3256 14.0891C46.5422 14.1723 46.7036 14.1363 46.8873 13.9642C47.0318 13.8288 47.0335 13.8244 47.0335 13.5789C47.0335 13.3516 47.0245 13.3209 46.9276 13.2175C46.8117 13.0936 46.6397 13.0063 46.5141 13.0075C46.4698 13.008 46.3684 13.038 46.2889 13.0743ZM28.224 14.0014C27.6947 14.0535 26.9799 14.1975 26.5383 14.3409C26.2555 14.4327 26.1837 14.7172 26.4001 14.8882C26.5093 14.9746 26.5547 14.9712 27.0595 14.839C29.3164 14.248 31.7455 14.646 34.029 15.981C34.2327 16.1001 34.4201 16.1975 34.4454 16.1975C34.5464 16.1975 34.6941 16.0874 34.7294 15.9858C34.8014 15.7781 34.7326 15.6879 34.3092 15.4354C32.9532 14.6268 31.455 14.1327 29.9546 13.9992C29.5082 13.9595 28.6386 13.9606 28.224 14.0014ZM48.3094 14.3587C48.2141 14.4143 48.1389 14.6165 48.1766 14.7156C48.2264 14.8465 48.318 14.9054 48.6844 15.0424C49.3752 15.3005 50.1108 15.4821 50.9506 15.6017C51.4273 15.6696 52.8264 15.6598 53.3504 15.5849C53.9516 15.4989 54.0306 15.4721 54.0974 15.3312C54.1659 15.1871 54.1288 15.0455 53.9967 14.9464C53.9077 14.8797 53.8991 14.8799 53.3638 14.9591C52.611 15.0705 51.5591 15.071 50.8322 14.9602C50.2048 14.8646 49.5336 14.6938 48.9493 14.4811C48.4791 14.3098 48.4143 14.2974 48.3094 14.3587ZM38.5992 14.645C38.4892 14.7083 38.4428 14.7871 38.4416 14.9124C38.4406 15.0096 38.4912 15.0824 38.7622 15.3733C40.9753 17.7499 42.2828 20.8098 42.4245 23.9439C42.5758 27.2896 41.48 30.3034 39.2786 32.5963C38.9056 32.9847 38.8286 33.0831 38.8286 33.1714C38.8286 33.3645 38.9455 33.444 39.2114 33.4314C39.3708 33.4239 40.1317 32.6079 40.7165 31.8173C41.789 30.3675 42.5176 28.6486 42.8489 26.7866C43.0895 25.4343 43.1028 23.8619 42.8853 22.4726C42.4557 19.7285 41.2138 17.1577 39.3125 15.0762C38.8773 14.5998 38.7798 14.5409 38.5992 14.645ZM28.4534 15.7251C27.976 15.7736 27.2517 15.9296 26.8902 16.0617C26.7395 16.1168 26.6716 16.1638 26.6321 16.2405C26.5405 16.4185 26.6251 16.6143 26.8193 16.6737C26.865 16.6877 27.0167 16.6606 27.1898 16.6076C29.2323 15.9823 31.4998 16.3731 33.4658 17.6892C34.5745 18.4314 35.5411 19.4803 36.2339 20.6931C36.3264 20.855 36.4398 21.0124 36.4859 21.0427C36.5952 21.1147 36.7962 21.0788 36.869 20.9743C36.9678 20.8326 36.9338 20.6991 36.692 20.2799C35.2359 17.7547 32.6803 16.0388 29.9281 15.7386C29.6108 15.7039 28.7397 15.6959 28.4534 15.7251ZM35.8671 16.1455C35.1485 16.3469 34.7977 17.1351 35.1247 17.8137C35.2169 18.0051 35.5017 18.2729 35.7155 18.3693C35.9341 18.4678 36.3101 18.4743 36.5442 18.3835L36.7125 18.3183L36.7815 18.4013C36.8194 18.4469 36.9589 18.6357 37.0915 18.821C38.0131 20.1084 38.5777 21.4564 38.8658 23.0576C38.9609 23.5857 39.0003 24.9107 38.938 25.4851C38.7142 27.5502 37.7499 29.4089 36.2507 30.6653C36.0419 30.8402 35.8616 31.0082 35.85 31.0384C35.7744 31.2362 35.9153 31.4421 36.1262 31.4421C36.3554 31.4421 37.179 30.7034 37.7468 29.9886C39.8685 27.3174 40.1801 23.4586 38.5471 20.0796C38.2689 19.504 37.8523 18.8172 37.4764 18.3145L37.1652 17.8984L37.2382 17.7025C37.334 17.4452 37.3344 17.1136 37.2394 16.8583C37.0383 16.3184 36.4117 15.9929 35.8671 16.1455ZM35.9058 16.7869C35.5346 16.9771 35.5154 17.5387 35.8728 17.7576C36.1211 17.9097 36.4855 17.8142 36.6313 17.5587C36.7723 17.3115 36.7039 16.9918 36.4731 16.8203C36.3466 16.7263 36.0574 16.7093 35.9058 16.7869ZM42.3736 16.9936C42.3248 17.0426 42.287 17.122 42.287 17.1755C42.287 17.2277 42.4288 17.5595 42.6022 17.9128C43.2464 19.2254 43.6687 20.4772 43.9253 21.8345C44.392 24.3027 44.2035 26.9242 43.3988 29.1573C43.2564 29.5526 43.2471 29.6614 43.3467 29.7687C43.4839 29.9167 43.7106 29.8996 43.818 29.7331C43.8927 29.6171 44.1676 28.7734 44.3131 28.2135C45.1172 25.118 44.8902 21.8604 43.6549 18.7678C43.3975 18.1234 42.8745 17.0541 42.7749 16.9686C42.6682 16.877 42.4779 16.8888 42.3736 16.9936ZM28.6762 17.4733C28.0676 17.5271 27.275 17.7311 27.1212 17.8735C27.0087 17.9777 27.0123 18.1918 27.1285 18.3085C27.239 18.4196 27.2999 18.4179 27.6911 18.2928C28.3608 18.0786 29.2257 18.0157 29.9279 18.1301C30.2158 18.177 30.2675 18.1772 30.3552 18.1316C30.5617 18.0244 30.5796 17.734 30.387 17.6163C30.2017 17.5031 29.2441 17.4231 28.6762 17.4733ZM31.995 18.2527C31.8242 18.3236 31.7545 18.5542 31.8587 18.7036C31.8877 18.7452 32.0121 18.8357 32.1351 18.9049C33.4057 19.6187 34.576 20.9808 35.1065 22.3633C35.3479 22.9923 35.4379 23.4176 35.5339 24.3829C35.5635 24.6796 35.7575 24.8205 35.9754 24.7033C36.1074 24.6323 36.1382 24.4761 36.1063 24.0403C35.9452 21.8455 34.5561 19.6609 32.5463 18.4413C32.2183 18.2423 32.1096 18.2051 31.995 18.2527ZM44.9867 18.332C44.8843 18.391 44.8303 18.4723 44.829 18.5693C44.8284 18.6161 44.9144 18.9112 45.0202 19.2251C45.3266 20.1344 45.5642 21.1047 45.7082 22.0348C45.7849 22.5297 45.8084 22.588 45.9558 22.6493C46.1025 22.7104 46.2672 22.6414 46.3287 22.4931C46.3781 22.3741 46.3496 22.1123 46.201 21.3212C45.996 20.2298 45.4952 18.5654 45.3181 18.3867C45.2159 18.2836 45.1031 18.2649 44.9867 18.332ZM46.8496 18.6526C46.7263 18.788 46.727 18.8614 46.8566 19.2908C47.2484 20.5893 47.4601 21.7486 47.5994 23.3589C47.6347 23.7665 47.7711 23.9095 48.0235 23.8036C48.2061 23.7269 48.2255 23.6374 48.1811 23.0773C48.0883 21.9057 47.8503 20.5409 47.5595 19.5123C47.3184 18.6597 47.2714 18.5728 47.0511 18.5728C46.9626 18.5728 46.8996 18.5977 46.8496 18.6526ZM28.4652 19.2612C28.0988 19.3313 27.7465 19.4571 27.6527 19.5513C27.5365 19.668 27.545 19.8283 27.6743 19.9582C27.7999 20.0843 27.8333 20.0853 28.1569 19.9732C29.0807 19.6528 30.3131 19.849 31.3575 20.4828C32.7524 21.3293 33.4758 22.6021 33.4758 24.2098C33.4758 25.4882 33.0305 26.4449 32.1389 27.0818C31.9844 27.1922 31.9636 27.2227 31.9541 27.3519C31.9449 27.478 31.9583 27.51 32.0539 27.5908C32.1146 27.6422 32.1908 27.684 32.2233 27.6838C32.4197 27.6827 33.0572 27.1473 33.3413 26.7448C34.3955 25.2517 34.3203 22.8447 33.1712 21.2942C32.981 21.0375 32.55 20.5933 32.2824 20.3781C31.6707 19.8863 30.8531 19.4938 30.0609 19.3119C29.6503 19.2176 28.8294 19.1915 28.4652 19.2612ZM48.867 19.4044C48.756 19.5158 48.7559 19.6328 48.8665 20.103C49.2153 21.587 49.3803 23.0775 49.3803 24.746V25.6311L49.4669 25.7181C49.5965 25.8484 49.7707 25.8372 49.8933 25.6907L49.9892 25.5762L49.9703 24.3169C49.9509 23.0167 49.8981 22.3652 49.7305 21.3559C49.593 20.5284 49.3986 19.6382 49.3223 19.4868C49.2282 19.3002 49.01 19.2607 48.867 19.4044ZM50.7677 19.6366C50.5851 19.7106 50.5813 19.835 50.737 20.6468C50.7856 20.9003 50.8668 21.4587 50.9175 21.8876C50.9682 22.3166 51.0164 22.7167 51.0247 22.7766C51.0699 23.1032 51.5032 23.1378 51.6128 22.8236C51.6564 22.6982 51.4367 21.0267 51.2545 20.0992C51.2008 19.8258 51.1714 19.7494 51.0942 19.6827C50.9956 19.5975 50.8983 19.5838 50.7677 19.6366ZM28.7534 20.9849C28.4406 21.0606 28.3203 21.1254 28.2615 21.2498C28.2113 21.3562 28.2103 21.3854 28.254 21.4902C28.3292 21.671 28.4706 21.7165 28.7073 21.6359C28.9463 21.5546 29.4446 21.5538 29.7591 21.6343C30.9238 21.9324 31.7879 23.0702 31.6374 24.1077C31.5577 24.6569 31.3099 25.1874 30.9616 25.5543C30.7497 25.7774 30.7232 25.9261 30.8692 26.0726C31.0662 26.2706 31.322 26.1422 31.6462 25.6829C32.073 25.0782 32.3049 24.3159 32.2523 23.6905C32.2218 23.3289 32.1716 23.1406 32.0139 22.7972C31.6227 21.9456 30.8866 21.3188 29.9647 21.0525C29.6705 20.9675 28.9836 20.9291 28.7534 20.9849ZM36.9037 21.6733C36.7935 21.7841 36.7935 21.8975 36.904 22.2492C37.5368 24.2637 37.3126 26.3998 36.301 27.9958C35.9505 28.5487 35.3865 29.1567 34.8959 29.5106C34.5362 29.7699 34.4527 29.8592 34.4527 29.9839C34.4527 30.1429 34.5904 30.2864 34.7432 30.2864C35.0076 30.2864 36.0178 29.411 36.4981 28.7657C37.7738 27.0516 38.1788 24.843 37.6292 22.5983C37.4909 22.0336 37.3982 21.768 37.3044 21.6678C37.1999 21.5559 37.018 21.5585 36.9037 21.6733ZM29.5298 23.1181C29.2901 23.2022 29.189 23.3895 29.2837 23.5735C29.3622 23.7261 29.4801 23.7722 29.6644 23.7224C29.9434 23.6469 30.0699 23.8509 29.8827 24.0745C29.7132 24.2767 29.7353 24.4806 29.9389 24.5955C30.2273 24.7581 30.6624 24.2197 30.5856 23.7951C30.493 23.2826 29.9864 22.9577 29.5298 23.1181ZM46.0213 23.2347C45.9693 23.2639 45.9184 23.3157 45.9082 23.3499C45.898 23.3841 45.8912 23.8429 45.893 24.3693C45.8948 24.8958 45.8773 25.5499 45.8542 25.8229C45.7245 27.3567 45.3995 28.7982 44.8765 30.1605C44.6979 30.6256 44.6871 30.7367 44.8086 30.8588C44.9188 30.9694 45.0772 30.9724 45.1935 30.866C45.4053 30.6723 45.9647 28.9324 46.2009 27.7323C46.4377 26.5293 46.5553 24.9878 46.4946 23.8814C46.47 23.4321 46.4561 23.3481 46.3967 23.2884C46.3022 23.1935 46.137 23.1698 46.0213 23.2347ZM47.6539 24.371C47.4098 24.4388 47.2728 24.5248 47.088 24.7262C46.7604 25.0833 46.6939 25.5934 46.9167 26.0416C47.0013 26.2117 47.2734 26.4883 47.424 26.5572C47.5143 26.5985 47.5166 26.6069 47.4936 26.8141C47.4806 26.9319 47.4287 27.2596 47.3783 27.5423C47.2602 28.2047 47.2606 28.2757 47.3824 28.381C47.557 28.5319 47.7875 28.4649 47.8592 28.2424C47.9004 28.1143 48.0576 27.2005 48.094 26.8769C48.1175 26.6687 48.1176 26.6686 48.2636 26.6288C48.94 26.4445 49.2942 25.6255 48.9782 24.9766C48.7452 24.4982 48.1596 24.2304 47.6539 24.371ZM47.6494 25.0342C47.1976 25.34 47.3943 26.0533 47.9303 26.0533C48.1433 26.0533 48.3199 25.9557 48.418 25.7837C48.6351 25.4034 48.371 24.9543 47.9303 24.9543C47.8197 24.9543 47.7295 24.98 47.6494 25.0342ZM35.0993 25.2514C34.7836 25.3551 34.5096 25.602 34.3735 25.9055C34.3167 26.032 34.2992 26.1421 34.2992 26.3724C34.2992 26.7195 34.3691 26.9174 34.5712 27.1421L34.6947 27.2794L34.4943 27.5164C34.2523 27.8025 33.9196 28.09 33.5936 28.2948C33.2556 28.507 33.1851 28.5726 33.1614 28.697C33.133 28.846 33.284 29.0313 33.4338 29.0313C33.7306 29.0313 34.5608 28.4047 35.0011 27.8483L35.2363 27.5512L35.4885 27.5348C35.634 27.5253 35.8106 27.4873 35.9058 27.4449C36.1376 27.3416 36.3753 27.1087 36.4885 26.8738C36.5704 26.704 36.5849 26.6282 36.5849 26.3724C36.5849 26.1166 36.5704 26.0408 36.4885 25.871C36.3753 25.6361 36.1376 25.4032 35.9058 25.2999C35.6998 25.2081 35.3035 25.1843 35.0993 25.2514ZM35.1761 25.8857C35.0235 25.9714 34.8762 26.2105 34.8762 26.3724C34.8762 26.643 35.1708 26.9385 35.4408 26.9385C35.7108 26.9385 36.0054 26.643 36.0054 26.3724C36.0054 26.1018 35.7108 25.8063 35.4408 25.8063C35.3729 25.8063 35.2538 25.842 35.1761 25.8857ZM40.7471 25.953C40.6378 26.0062 40.6039 26.0951 40.5213 26.5462C40.3415 27.5279 39.9549 28.5909 39.4587 29.468C39.0013 30.2766 38.5245 30.8928 37.8282 31.5753C37.5644 31.8338 37.3314 32.0777 37.3103 32.1173C37.2284 32.271 37.3915 32.5057 37.5801 32.5057C37.7263 32.5057 37.9545 32.318 38.5114 31.7398C39.6949 30.5109 40.5258 29.0107 40.9623 27.3146C41.1086 26.746 41.2036 26.2135 41.1749 26.1225C41.1455 26.0298 40.9875 25.911 40.8971 25.9139C40.8561 25.9152 40.7886 25.9328 40.7471 25.953ZM43.0019 30.3153C42.9529 30.3391 42.833 30.5243 42.6877 30.8004C42.312 31.5143 41.9417 32.0976 41.4847 32.6955C41.2638 32.9844 41.2471 33.0972 41.402 33.2529C41.5538 33.4054 41.6676 33.3913 41.847 33.1978C42.165 32.8547 42.8105 31.859 43.2254 31.0716C43.4705 30.6063 43.4763 30.434 43.251 30.3134C43.1586 30.264 43.107 30.2644 43.0019 30.3153Z" fill="#A1DEFF"/>
<path d="M76.4947 33.4326L69.6059 21.4632H65.8601V33.4326H60.9518V3.5092H71.2851C73.5813 3.5092 75.5188 3.91105 77.0975 4.71475C78.7049 5.51844 79.8961 6.59483 80.6711 7.94389C81.4748 9.29296 81.8767 10.7999 81.8767 12.4647C81.8767 14.4165 81.3026 16.1962 80.1544 17.8036C79.035 19.3822 77.2984 20.4586 74.9448 21.0327L82.3503 33.4326H76.4947ZM65.8601 17.5452H71.2851C73.1221 17.5452 74.4998 17.086 75.4184 16.1675C76.3656 15.2489 76.8392 14.0147 76.8392 12.4647C76.8392 10.9147 76.3799 9.70916 75.4614 8.84805C74.5429 7.95824 73.1508 7.51334 71.2851 7.51334H65.8601V17.5452ZM107.487 3.5092V7.51334H99.5223V33.4326H94.6139V7.51334H86.6057V3.5092H107.487ZM117.367 3.5092V33.4326H112.458V3.5092H117.367ZM144.736 12.4216C144.736 13.9429 144.377 15.3781 143.659 16.7272C142.942 18.0762 141.794 19.1813 140.215 20.0424C138.636 20.8748 136.613 21.291 134.144 21.291H128.719V33.4326H123.811V3.5092H134.144C136.44 3.5092 138.378 3.91105 139.957 4.71475C141.564 5.48974 142.755 6.55177 143.53 7.90084C144.334 9.2499 144.736 10.7568 144.736 12.4216ZM134.144 17.2869C136.01 17.2869 137.402 16.8707 138.32 16.0383C139.239 15.1772 139.698 13.9716 139.698 12.4216C139.698 9.14944 137.847 7.51334 134.144 7.51334H128.719V17.2869H134.144ZM167.457 27.3188H154.928L152.775 33.4326H147.652L158.372 3.46614H164.056L174.776 33.4326H169.61L167.457 27.3188ZM166.079 23.3146L161.214 9.40777L156.306 23.3146H166.079ZM201.611 3.5092L191.709 22.5827V33.4326H186.8V22.5827L176.855 3.5092H182.323L189.254 18.191L196.186 3.5092H201.611Z" fill="white"/>
</svg>
