<svg width="116" height="32" viewBox="0 0 116 32" fill="none" xmlns="http://www.w3.org/2000/svg">
<g clip-path="url(#clip0_12382_44850)">
<g clip-path="url(#clip1_12382_44850)">
<mask id="mask0_12382_44850" style="mask-type:luminance" maskUnits="userSpaceOnUse" x="0" y="0" width="32" height="32">
<path d="M31.4513 0.00268555H0V31.454H31.4513V0.00268555Z" fill="white"/>
</mask>
<g mask="url(#mask0_12382_44850)">
<path fill-rule="evenodd" clip-rule="evenodd" d="M23.5844 0.564331C25.3389 0.564331 27.1792 1.07148 28.5211 2.19221C30.0475 3.46718 30.7769 5.47467 30.8778 7.39826C30.9786 9.32308 30.4639 11.3859 29.2219 12.8445C27.8488 14.457 25.6476 15.1745 23.5844 15.1745C21.5212 15.1745 19.3203 14.457 17.9472 12.8445C16.705 11.3859 16.1903 9.32308 16.2913 7.39826C16.3921 5.47467 17.1215 3.46718 18.6479 2.19221C19.9896 1.07148 21.8301 0.564331 23.5844 0.564331ZM12.8042 17.9102C11.4625 16.7895 9.62201 16.2823 7.86757 16.2823C6.11318 16.2823 4.27271 16.7895 2.93099 17.9102C1.40462 19.1852 0.675246 21.1927 0.574364 23.1163C0.473419 25.0411 0.988143 27.1039 2.23028 28.5626C3.60336 30.1748 5.80434 30.8924 7.86757 30.8924C9.93078 30.8924 12.1318 30.1748 13.5048 28.5626C14.747 27.1039 15.2617 25.0411 15.1607 23.1163C15.0599 21.1927 14.3305 19.1852 12.8042 17.9102ZM12.0229 4.74354C11.1083 3.97959 9.87983 3.65083 8.73744 3.65083C7.59502 3.65083 6.36653 3.97959 5.45195 4.74354C4.40244 5.62018 3.92654 6.97317 3.86085 8.2255C3.79512 9.47908 4.12677 10.854 4.97273 11.8474C5.91564 12.9546 7.39543 13.4196 8.73744 13.4196C10.0795 13.4196 11.5593 12.9546 12.5022 11.8474C13.348 10.854 13.6797 9.47908 13.614 8.2255C13.5483 6.97317 13.0724 5.62018 12.0229 4.74354ZM23.6848 19.2347C24.8272 19.2347 26.0558 19.5635 26.9703 20.3274C28.0197 21.2041 28.4957 22.5571 28.5614 23.8093C28.6272 25.0629 28.2956 26.4378 27.4496 27.4312C26.5067 28.5385 25.0269 29.0035 23.6848 29.0035C22.3428 29.0035 20.863 28.5385 19.9201 27.4312C19.0742 26.4378 18.7425 25.0629 18.8082 23.8093C18.874 22.5571 19.3498 21.2041 20.3994 20.3274C21.3139 19.5635 22.5425 19.2347 23.6848 19.2347Z" fill="white"/>
</g>
<path d="M48.0969 25.4468C46.8702 25.4468 45.7223 25.2266 44.6529 24.7863C43.5993 24.3303 42.6715 23.7012 41.8695 22.8992C41.0675 22.0815 40.4385 21.1222 39.9824 20.0214C39.5264 18.9049 39.2983 17.6862 39.2983 16.3652C39.2983 15.0443 39.5264 13.8334 39.9824 12.7326C40.4385 11.6161 41.0675 10.6568 41.8695 9.85479C42.6715 9.03706 43.5993 8.40803 44.6529 7.96771C45.7223 7.52741 46.8702 7.30725 48.0969 7.30725C49.3235 7.30725 50.4636 7.53527 51.5172 7.9913C52.5865 8.43162 53.5222 9.06065 54.3242 9.87838C55.1262 10.6804 55.7553 11.6318 56.2113 12.7326C56.6673 13.8334 56.8954 15.0443 56.8954 16.3652C56.8954 17.6862 56.6673 18.9049 56.2113 20.0214C55.7553 21.1222 55.1262 22.0815 54.3242 22.8992C53.5222 23.7012 52.5865 24.3303 51.5172 24.7863C50.4636 25.2266 49.3235 25.4468 48.0969 25.4468ZM48.0969 23.6777C49.119 23.6777 50.0468 23.4889 50.8803 23.1115C51.7295 22.7341 52.4607 22.2073 53.074 21.5311C53.6873 20.8549 54.1591 20.0765 54.4893 19.1958C54.8353 18.3152 55.0083 17.3717 55.0083 16.3652C55.0083 15.3745 54.8353 14.4388 54.4893 13.5582C54.1591 12.6776 53.6873 11.8991 53.074 11.2229C52.4607 10.5467 51.7295 10.0199 50.8803 9.6425C50.0468 9.26508 49.119 9.07637 48.0969 9.07637C47.0747 9.07637 46.139 9.26508 45.2898 9.6425C44.4564 10.0199 43.733 10.5467 43.1197 11.2229C42.5064 11.8991 42.0267 12.6776 41.6808 13.5582C41.3505 14.4388 41.1854 15.3745 41.1854 16.3652C41.1854 17.3717 41.3505 18.3152 41.6808 19.1958C42.0267 20.0765 42.5064 20.8549 43.1197 21.5311C43.733 22.2073 44.4642 22.7341 45.3134 23.1115C46.1626 23.4889 47.0904 23.6777 48.0969 23.6777ZM53.1684 27.2867L46.9174 18.1344H49.064L55.3149 27.2867H53.1684ZM64.9846 25.4468C64.1039 25.4468 63.3019 25.2424 62.5785 24.8335C61.8552 24.4089 61.2812 23.8271 60.8566 23.0879C60.4477 22.3331 60.2433 21.4682 60.2433 20.4932V12.5203H62.0124V20.2809C62.0124 20.9571 62.1461 21.5547 62.4134 22.0736C62.6965 22.5769 63.0818 22.97 63.5693 23.2531C64.0725 23.5361 64.6465 23.6777 65.2912 23.6777C65.936 23.6777 66.51 23.5361 67.0132 23.2531C67.5164 22.9543 67.9095 22.5375 68.1926 22.0029C68.4757 21.4525 68.6172 20.7999 68.6172 20.045V12.5203H70.3863V25.1637H68.6172V22.7105L69.0182 22.8049C68.7194 23.6226 68.2083 24.2674 67.485 24.7391C66.7616 25.2109 65.9281 25.4468 64.9846 25.4468ZM80.016 25.4468C78.8366 25.4468 77.7674 25.1637 76.8082 24.5976C75.8646 24.0158 75.1176 23.2216 74.5672 22.2152C74.0168 21.2087 73.7416 20.0686 73.7416 18.7948C73.7416 17.5211 74.009 16.3967 74.5437 15.4217C75.0783 14.431 75.8017 13.6525 76.7138 13.0864C77.6416 12.5203 78.6794 12.2372 79.8273 12.2372C80.7394 12.2372 81.5493 12.4102 82.2569 12.7562C82.9803 13.0864 83.5936 13.5425 84.0968 14.1243C84.6001 14.6904 84.9853 15.3352 85.2527 16.0586C85.52 16.7662 85.6537 17.4975 85.6537 18.2523C85.6537 18.4096 85.6458 18.5904 85.6301 18.7948C85.6144 18.9835 85.5908 19.1801 85.5593 19.3846H74.8739V17.7334H84.545L83.6958 18.441C83.8374 17.5761 83.7352 16.8055 83.3892 16.1293C83.0589 15.4374 82.5793 14.8949 81.9503 14.5017C81.3213 14.0929 80.6136 13.8884 79.8273 13.8884C79.041 13.8884 78.31 14.0929 77.6337 14.5017C76.9733 14.9106 76.4543 15.4846 76.0769 16.2237C75.6995 16.9471 75.5501 17.812 75.6287 18.8184C75.5501 19.8249 75.7074 20.7055 76.1005 21.4603C76.5094 22.1994 77.0598 22.7734 77.7517 23.1823C78.4593 23.5912 79.214 23.7956 80.016 23.7956C80.9438 23.7956 81.7223 23.5754 82.3513 23.1351C82.9803 22.6948 83.4914 22.1444 83.8845 21.4839L85.3942 22.2859C85.1426 22.8521 84.7573 23.3789 84.2384 23.8664C83.7194 24.3381 83.0983 24.7234 82.3749 25.0222C81.6672 25.3053 80.8809 25.4468 80.016 25.4468ZM93.4906 25.4468C92.6099 25.4468 91.8079 25.2424 91.0845 24.8335C90.3612 24.4089 89.7872 23.8271 89.3626 23.0879C88.9537 22.3331 88.7493 21.4682 88.7493 20.4932V12.5203H90.5184V20.2809C90.5184 20.9571 90.6521 21.5547 90.9194 22.0736C91.2025 22.5769 91.5878 22.97 92.0753 23.2531C92.5785 23.5361 93.1525 23.6777 93.7972 23.6777C94.442 23.6777 95.016 23.5361 95.5192 23.2531C96.0224 22.9543 96.4155 22.5375 96.6986 22.0029C96.9817 21.4525 97.1232 20.7999 97.1232 20.045V12.5203H98.8923V25.1637H97.1232V22.7105L97.5242 22.8049C97.2254 23.6226 96.7143 24.2674 95.991 24.7391C95.2676 25.2109 94.4341 25.4468 93.4906 25.4468ZM108.522 25.4468C107.343 25.4468 106.273 25.1637 105.314 24.5976C104.37 24.0158 103.623 23.2216 103.073 22.2152C102.523 21.2087 102.247 20.0686 102.247 18.7948C102.247 17.5211 102.515 16.3967 103.049 15.4217C103.584 14.431 104.307 13.6525 105.22 13.0864C106.147 12.5203 107.185 12.2372 108.333 12.2372C109.245 12.2372 110.055 12.4102 110.763 12.7562C111.486 13.0864 112.1 13.5425 112.603 14.1243C113.106 14.6904 113.491 15.3352 113.759 16.0586C114.026 16.7662 114.16 17.4975 114.16 18.2523C114.16 18.4096 114.152 18.5904 114.136 18.7948C114.12 18.9835 114.097 19.1801 114.065 19.3846H103.38V17.7334H113.051L112.202 18.441C112.343 17.5761 112.241 16.8055 111.895 16.1293C111.565 15.4374 111.085 14.8949 110.456 14.5017C109.827 14.0929 109.12 13.8884 108.333 13.8884C107.547 13.8884 106.816 14.0929 106.14 14.5017C105.479 14.9106 104.96 15.4846 104.583 16.2237C104.205 16.9471 104.056 17.812 104.134 18.8184C104.056 19.8249 104.213 20.7055 104.606 21.4603C105.015 22.1994 105.566 22.7734 106.257 23.1823C106.965 23.5912 107.72 23.7956 108.522 23.7956C109.45 23.7956 110.228 23.5754 110.857 23.1351C111.486 22.6948 111.997 22.1444 112.39 21.4839L113.9 22.2859C113.649 22.8521 113.263 23.3789 112.744 23.8664C112.225 24.3381 111.604 24.7234 110.881 25.0222C110.173 25.3053 109.387 25.4468 108.522 25.4468Z" fill="white"/>
</g>
</g>
<defs>
<clipPath id="clip0_12382_44850">
<rect width="115.584" height="31.4513" fill="white"/>
</clipPath>
<clipPath id="clip1_12382_44850">
<rect width="115.584" height="31.4513" fill="white"/>
</clipPath>
</defs>
</svg>
