<svg width="132" height="32" viewBox="0 0 132 32" fill="none" xmlns="http://www.w3.org/2000/svg">
<g clip-path="url(#clip0_12382_44841)">
<g clip-path="url(#clip1_12382_44841)">
<mask id="mask0_12382_44841" style="mask-type:luminance" maskUnits="userSpaceOnUse" x="0" y="0" width="32" height="32">
<path d="M31.4513 0H0V31.4513H31.4513V0Z" fill="white"/>
</mask>
<g mask="url(#mask0_12382_44841)">
<path d="M15.7256 0C24.4109 0 31.4512 7.04038 31.4512 15.7257V26.7336C31.4512 27.9849 30.9542 29.1848 30.0695 30.0695C29.1848 30.9543 27.9848 31.4513 26.7335 31.4513H16.5119V24.5525C16.5119 22.9783 16.6078 21.3476 17.4334 20.0078C18.0245 19.0476 18.8151 18.2257 19.7518 17.598C20.6884 16.9703 21.7491 16.5513 22.8619 16.3696L23.163 16.3209C23.2872 16.2784 23.395 16.1982 23.4713 16.0915C23.5476 15.9848 23.5886 15.8569 23.5886 15.7257C23.5886 15.5944 23.5476 15.4665 23.4713 15.3598C23.395 15.2531 23.2872 15.1729 23.163 15.1305L22.8619 15.0817C21.236 14.8161 19.7346 14.0465 18.5696 12.8816C17.4048 11.7166 16.6351 10.2152 16.3695 8.58936L16.3208 8.28821C16.2784 8.16406 16.1982 8.05626 16.0914 7.97999C15.9847 7.90364 15.8568 7.86264 15.7256 7.86264C15.5944 7.86264 15.4665 7.90364 15.3597 7.97999C15.253 8.05626 15.1728 8.16406 15.1304 8.28821L15.0816 8.58936C14.9 9.70219 14.481 10.7629 13.8533 11.6995C13.2256 12.6361 12.4037 13.4268 11.4435 14.0179C10.1037 14.8435 8.4729 14.9394 6.89878 14.9394H0.0187988C0.430025 6.61972 7.30451 0 15.7256 0Z" fill="white"/>
<path d="M0 16.512H6.89885C8.47299 16.512 10.1037 16.6079 11.4436 17.4335C12.4909 18.0789 13.3725 18.9604 14.0179 20.0078C14.8435 21.3476 14.9394 22.9783 14.9394 24.5525V31.4513H4.7177C3.46649 31.4513 2.26653 30.9543 1.38178 30.0695C0.497042 29.1848 0 27.9849 0 26.7336V16.512ZM31.4513 1.57257C31.4513 1.98964 31.2857 2.38963 30.9907 2.68454C30.6958 2.97946 30.2958 3.14513 29.8788 3.14513C29.4617 3.14513 29.0617 2.97946 28.7668 2.68454C28.4719 2.38963 28.3062 1.98964 28.3062 1.57257C28.3062 1.1555 28.4719 0.755508 28.7668 0.460594C29.0617 0.165681 29.4617 0 29.8788 0C30.2958 0 30.6958 0.165681 30.9907 0.460594C31.2857 0.755508 31.4513 1.1555 31.4513 1.57257Z" fill="white"/>
</g>
<path d="M39.157 25.161V7.46959H42.6245V25.161H39.157ZM44.5021 25.161V12.2581L47.663 11.857V14.782C47.9146 13.6969 48.3471 12.9028 48.9604 12.3996C49.5737 11.8964 50.2499 11.6448 50.989 11.6448C51.7281 11.6448 52.3257 11.8728 52.7817 12.3288C53.2535 12.7691 53.5523 13.5004 53.6781 14.5225C53.9454 13.5161 54.37 12.7849 54.9518 12.3288C55.5494 11.8728 56.2099 11.6448 56.9333 11.6448C57.8296 11.6448 58.5137 11.975 58.9855 12.6355C59.4572 13.2959 59.6931 14.3732 59.6931 15.8671V25.161H56.3907V16.8106C56.3907 15.9772 56.3043 15.3953 56.1313 15.0651C55.974 14.7348 55.7224 14.5697 55.3764 14.5697C54.9047 14.5697 54.5115 14.9 54.197 15.5604C53.8982 16.2052 53.7488 17.1487 53.7488 18.3911V25.161H50.4464V16.8106C50.4464 15.9772 50.3599 15.3953 50.187 15.0651C50.0297 14.7348 49.7781 14.5697 49.4321 14.5697C48.9604 14.5697 48.5672 14.9 48.2527 15.5604C47.9539 16.2052 47.8045 17.1487 47.8045 18.3911V25.161H44.5021ZM63.9172 25.444C62.9737 25.444 62.2188 25.1138 61.6527 24.4533C61.0866 23.7771 60.8035 22.8493 60.8035 21.6699C60.8035 20.632 61.0551 19.7906 61.5584 19.1459C62.0773 18.4854 62.7771 18.0058 63.6577 17.707C64.5384 17.3925 65.537 17.2352 66.6535 17.2352V16.0322C66.6535 15.5447 66.5591 15.128 66.3704 14.782C66.1974 14.4203 65.8672 14.2395 65.3797 14.2395C64.9708 14.2395 64.6642 14.4203 64.4597 14.782C64.2553 15.128 64.1216 15.5447 64.0587 16.0322L61.1338 15.3953C61.3382 14.1373 61.8336 13.2016 62.6198 12.5883C63.4218 11.9593 64.3733 11.6448 65.4741 11.6448C67.0152 11.6448 68.1474 12.0615 68.8708 12.8949C69.5942 13.7284 69.9559 14.8921 69.9559 16.386V21.6699C69.9559 22.2989 69.9873 22.9043 70.0502 23.4862C70.1288 24.068 70.2547 24.6263 70.4276 25.161H67.2196C66.9994 24.5948 66.8815 24.0209 66.8658 23.439C66.6299 24.0051 66.2682 24.4848 65.7807 24.8779C65.3089 25.2553 64.6878 25.444 63.9172 25.444ZM64.0823 21.1981C64.0823 21.6856 64.1845 22.0787 64.389 22.3775C64.6091 22.6763 64.9315 22.8257 65.3561 22.8257C65.7492 22.8257 66.0638 22.692 66.2996 22.4247C66.5355 22.1574 66.6535 21.8114 66.6535 21.3868V19.0044C65.8357 19.0044 65.1989 19.2167 64.7428 19.6413C64.3025 20.0501 64.0823 20.5691 64.0823 21.1981ZM76.1997 29.1238C74.6586 29.1238 73.4163 28.8408 72.4728 28.2746C71.5292 27.7242 71.0574 26.9694 71.0574 26.0102C71.0574 25.4598 71.2147 24.9801 71.5292 24.5713C71.8595 24.1624 72.3155 23.8636 72.8974 23.6749C72.1582 23.2346 71.7887 22.5898 71.7887 21.7406C71.7887 20.7342 72.3627 19.9479 73.5107 19.3818C72.8816 19.0201 72.3863 18.5483 72.0246 17.9665C71.6629 17.3846 71.482 16.732 71.482 16.0086C71.482 15.1909 71.6943 14.4596 72.1189 13.8149C72.5435 13.1701 73.1254 12.6591 73.8645 12.2816C74.6036 11.9042 75.437 11.7155 76.3649 11.7155C77.3399 11.7155 78.1969 11.92 78.9359 12.3288C79.0931 11.574 79.3919 10.8978 79.8322 10.3002C80.2725 9.70263 80.8072 9.30949 81.4362 9.12078L82.309 11.8099C81.3812 12.0615 80.6106 12.4939 79.9973 13.1072C80.3747 13.4847 80.6657 13.925 80.8701 14.4282C81.0903 14.9157 81.2004 15.4425 81.2004 16.0086C81.2004 16.8106 80.9959 17.5183 80.587 18.1316C80.1782 18.7449 79.6042 19.2245 78.8651 19.5705C78.1419 19.9165 77.3084 20.0894 76.3649 20.0894C76.0975 20.0894 75.8381 20.0737 75.5864 20.0423C75.3348 20.0108 75.0911 19.9715 74.8552 19.9243C74.6193 20.0658 74.5014 20.2624 74.5014 20.514C74.5014 20.7185 74.5957 20.8993 74.7844 21.0566C74.9889 21.2138 75.2955 21.3082 75.7044 21.3396L78.0633 21.5519C79.3211 21.662 80.2961 22.0237 80.9881 22.637C81.68 23.2346 82.0259 24.0838 82.0259 25.1846C82.0259 26.3797 81.5149 27.3311 80.4927 28.0388C79.4863 28.7621 78.0554 29.1238 76.1997 29.1238ZM76.3413 18.108C76.7973 18.108 77.159 17.9114 77.4263 17.5183C77.6937 17.1094 77.8274 16.5747 77.8274 15.9143C77.8274 15.2381 77.6937 14.7034 77.4263 14.3103C77.159 13.9014 76.7973 13.697 76.3413 13.697C75.8852 13.697 75.5235 13.9014 75.2562 14.3103C74.9889 14.7034 74.8552 15.2302 74.8552 15.8907C74.8552 16.5669 74.9889 17.1094 75.2562 17.5183C75.5393 17.9114 75.901 18.108 76.3413 18.108ZM76.4356 26.765C77.2062 26.765 77.8038 26.6706 78.2284 26.4819C78.6528 26.2932 78.8651 26.0023 78.8651 25.6091C78.8651 25.2475 78.7314 24.9723 78.4642 24.7835C78.1969 24.5791 77.7174 24.4454 77.0254 24.3825L74.5957 24.1467C74.5171 24.1467 74.4621 24.1388 74.4306 24.1231C74.1475 24.4376 74.006 24.7993 74.006 25.2081C74.006 25.7428 74.234 26.136 74.6901 26.3876C75.1461 26.6392 75.728 26.765 76.4356 26.765ZM83.0151 25.161V12.1873L86.3175 11.7863V25.161H83.0151ZM83.1566 10.5125V7.37523H86.1759V10.5125H83.1566ZM88.019 25.161V12.2581L91.1799 11.857V14.782C91.4315 13.6969 91.8718 12.9028 92.5008 12.3996C93.1298 11.8964 93.8689 11.6448 94.7181 11.6448C95.6459 11.6448 96.3851 11.9671 96.9355 12.6119C97.5016 13.2409 97.7846 14.2473 97.7846 15.6312V25.161H94.4823V16.9522C94.4823 16.0086 94.38 15.3639 94.1756 15.0179C93.9712 14.6562 93.6409 14.4754 93.1849 14.4754C92.6345 14.4754 92.1863 14.8528 91.8403 15.6076C91.4944 16.3467 91.3214 17.2745 91.3214 18.3911V25.161H88.019ZM103.819 25.4676C102.639 25.4676 101.68 25.1688 100.941 24.5713C100.217 23.958 99.6827 23.1402 99.3368 22.118C99.0065 21.0802 98.8414 19.9243 98.8414 18.6505C98.8414 17.2981 99.038 16.103 99.4311 15.0651C99.8243 14.0115 100.39 13.1937 101.129 12.6119C101.869 12.0143 102.757 11.7155 103.795 11.7155C104.864 11.7155 105.737 11.9593 106.413 12.4468C107.09 12.9343 107.585 13.5947 107.899 14.4282C108.214 15.2459 108.371 16.1816 108.371 17.2352C108.371 17.9586 108.348 18.7213 108.3 19.5233H102.191C102.207 20.0737 102.262 20.6162 102.356 21.1509C102.45 21.6856 102.616 22.1259 102.851 22.4719C103.087 22.8021 103.425 22.9672 103.866 22.9672C104.4 22.9672 104.762 22.7549 104.951 22.3303C105.155 21.9057 105.289 21.434 105.352 20.915L108.277 21.5283C108.057 22.7549 107.546 23.7221 106.744 24.4297C105.957 25.1217 104.982 25.4676 103.819 25.4676ZM102.191 17.4239H105.328V17.0937C105.328 16.6534 105.289 16.2131 105.21 15.7727C105.132 15.3167 104.982 14.9393 104.762 14.6405C104.558 14.326 104.259 14.1687 103.866 14.1687C103.457 14.1687 103.135 14.3338 102.899 14.6641C102.663 14.9786 102.49 15.3875 102.38 15.8907C102.285 16.3939 102.222 16.905 102.191 17.4239ZM121.713 25.4912L120.958 21.9293H117.16L116.618 25.161H113.197L116.806 7.68188L121.076 7.18652L125.18 25.161L121.713 25.4912ZM118.929 10.9371L118.741 12.0929L117.443 19.0515H120.51L119.142 12.0693L118.929 10.9371ZM126.243 25.161V7.46959H129.711V25.161H126.243Z" fill="white"/>
</g>
</g>
<defs>
<clipPath id="clip0_12382_44841">
<rect width="131.309" height="31.4513" fill="white"/>
</clipPath>
<clipPath id="clip1_12382_44841">
<rect width="131.309" height="31.4513" fill="white"/>
</clipPath>
</defs>
</svg>
