<svg width="64" height="64" viewBox="0 0 64 64" fill="none" xmlns="http://www.w3.org/2000/svg">
<rect width="64" height="64" rx="6" fill="#EBF8FF"/>
<path d="M33.1038 43.5537C32.9569 43.7745 32.7283 43.9279 32.4683 43.9802C32.2084 44.0324 31.9383 43.9793 31.7175 43.8325C27.9502 41.3263 23.5248 39.9927 19 40C18.7348 40 18.4804 39.8946 18.2929 39.7071C18.1054 39.5196 18 39.2652 18 39C18 38.7348 18.1054 38.4804 18.2929 38.2929C18.4804 38.1054 18.7348 38 19 38C23.9189 37.9925 28.7297 39.4427 32.825 42.1675C33.0458 42.3144 33.1991 42.5429 33.2514 42.8029C33.3037 43.0629 33.2506 43.3329 33.1038 43.5537ZM19 34C18.7348 34 18.4804 34.1054 18.2929 34.2929C18.1054 34.4804 18 34.7348 18 35C18 35.2652 18.1054 35.5196 18.2929 35.7071C18.4804 35.8946 18.7348 36 19 36C26.0685 35.9838 32.8583 38.7555 37.8962 43.7138C37.9892 43.8093 38.1003 43.8854 38.2231 43.9374C38.3458 43.9894 38.4777 44.0163 38.611 44.0166C38.7444 44.0169 38.8764 43.9905 38.9994 43.939C39.1223 43.8875 39.2338 43.812 39.3271 43.7168C39.4205 43.6216 39.4938 43.5087 39.5429 43.3848C39.592 43.2608 39.6158 43.1283 39.6129 42.995C39.6101 42.8617 39.5806 42.7304 39.5262 42.6087C39.4718 42.4869 39.3936 42.3773 39.2962 42.2862C33.8855 36.9599 26.5925 33.9824 19 34ZM45 36C42.956 35.9987 40.9184 36.2289 38.9263 36.6863C39.6129 37.2071 40.2796 37.7554 40.9263 38.3312C42.273 38.1107 43.6354 37.9999 45 38C45.2652 38 45.5196 38.1054 45.7071 38.2929C45.8946 38.4804 46 38.7348 46 39C46 39.2652 45.8946 39.5196 45.7071 39.7071C45.5196 39.8946 45.2652 40 45 40C44.25 40 43.5087 40.0362 42.7687 40.1075C43.4621 40.83 44.1262 41.5858 44.7612 42.375C44.8482 42.4769 44.9139 42.5952 44.9542 42.7229C44.9946 42.8506 45.0089 42.9851 44.9963 43.1185C44.9837 43.2518 44.9445 43.3813 44.8809 43.4992C44.8173 43.6171 44.7306 43.721 44.6261 43.8047C44.5215 43.8885 44.4013 43.9504 44.2723 43.9868C44.1434 44.0232 44.0085 44.0333 43.8756 44.0165C43.7427 43.9997 43.6145 43.9564 43.4987 43.8892C43.3829 43.8219 43.2817 43.7321 43.2013 43.625C40.3028 39.9903 36.6209 37.0571 32.4304 35.0442C28.2399 33.0313 23.6489 31.9907 19 32C18.7348 32 18.4804 31.8946 18.2929 31.7071C18.1054 31.5196 18 31.2652 18 31C18 30.7348 18.1054 30.4804 18.2929 30.2929C18.4804 30.1054 18.7348 30 19 30C21.0125 30.0002 23.0207 30.1834 25 30.5475V26C25 25.8448 25.0361 25.6916 25.1056 25.5528C25.175 25.4139 25.2758 25.2931 25.4 25.2L33.4 19.2C33.5731 19.0702 33.7836 19 34 19C34.2164 19 34.4269 19.0702 34.6 19.2L42.6 25.2C42.7242 25.2931 42.825 25.4139 42.8944 25.5528C42.9639 25.6916 43 25.8448 43 26V30.0625C43.6637 30.0225 44.33 30 45 30C45.2652 30 45.5196 30.1054 45.7071 30.2929C45.8946 30.4804 46 30.7348 46 31C46 31.2652 45.8946 31.5196 45.7071 31.7071C45.5196 31.8946 45.2652 32 45 32C41.4089 31.9931 37.8444 32.6146 34.4675 33.8363C35.2542 34.2529 36.0233 34.7021 36.775 35.1838C39.4457 34.3967 42.2157 33.998 45 34C45.2652 34 45.5196 34.1054 45.7071 34.2929C45.8946 34.4804 46 34.7348 46 35C46 35.2652 45.8946 35.5196 45.7071 35.7071C45.5196 35.8946 45.2652 36 45 36ZM32.0088 32.6588C33.6245 31.9646 35.2937 31.4019 37 30.9762V28H31V32.25C31.3387 32.375 31.675 32.5163 32.0088 32.6588Z" fill="#03377D"/>
</svg>
