<svg width="107" height="32" viewBox="0 0 107 32" fill="none" xmlns="http://www.w3.org/2000/svg">
<path d="M16.0533 8.35432C16.0533 12.4255 12.7531 15.7257 8.68192 15.7257H1.31055V8.35432C1.31055 4.28319 4.61083 0.98291 8.68192 0.98291C12.7531 0.98291 16.0533 4.28319 16.0533 8.35432Z" fill="white"/>
<path d="M16.0535 23.0971C16.0535 19.026 19.3538 15.7257 23.4249 15.7257H30.7963V23.0971C30.7963 27.1683 27.496 30.4685 23.4249 30.4685C19.3538 30.4685 16.0535 27.1683 16.0535 23.0971Z" fill="white"/>
<path d="M1.31055 23.0971C1.31055 27.1683 4.61083 30.4685 8.68192 30.4685H16.0533V23.0971C16.0533 19.026 12.7531 15.7257 8.68192 15.7257C4.61083 15.7257 1.31055 19.026 1.31055 23.0971Z" fill="white"/>
<path d="M30.7963 8.35432C30.7963 4.28319 27.496 0.98291 23.4249 0.98291H16.0535V8.35432C16.0535 12.4255 19.3538 15.7257 23.4249 15.7257C27.496 15.7257 30.7963 12.4255 30.7963 8.35432Z" fill="white"/>
<path d="M46.033 24.6052C44.5971 24.6052 43.3455 24.3902 42.2782 23.9602C41.2109 23.5225 40.3778 22.866 39.7789 21.9907C39.1876 21.1076 38.8843 19.9981 38.8689 18.662H42.8311C42.8694 19.2071 43.0192 19.6679 43.2803 20.0441C43.549 20.4127 43.9099 20.693 44.3629 20.8849C44.8237 21.0769 45.3612 21.1728 45.9754 21.1728C46.5359 21.1728 47.012 21.0961 47.4036 20.9425C47.8029 20.789 48.1101 20.5778 48.3251 20.309C48.54 20.0403 48.6476 19.7293 48.6476 19.3761C48.6476 19.0536 48.5477 18.781 48.3481 18.5583C48.1485 18.328 47.8452 18.1284 47.4382 17.9594C47.0389 17.7828 46.5245 17.6254 45.8948 17.4871L44.0865 17.0725C42.6122 16.7347 41.4489 16.1857 40.5966 15.4255C39.7443 14.6576 39.3181 13.6172 39.3181 12.3041C39.3181 11.2445 39.606 10.3154 40.182 9.51682C40.7579 8.71827 41.5487 8.09632 42.5546 7.65094C43.5682 7.20559 44.7277 6.98291 46.033 6.98291C47.3614 6.98291 48.517 7.20943 49.4998 7.66246C50.4827 8.1078 51.2429 8.73745 51.7804 9.55141C52.3179 10.3577 52.5943 11.2944 52.6097 12.3617H48.6246C48.5785 11.7474 48.3328 11.2714 47.8874 10.9335C47.4497 10.588 46.8277 10.4152 46.0215 10.4152C45.484 10.4152 45.0348 10.4843 44.6739 10.6226C44.3207 10.7607 44.0519 10.9527 43.8677 11.1984C43.6911 11.4442 43.6027 11.7205 43.6027 12.0277C43.6027 12.3656 43.7026 12.6535 43.9022 12.8915C44.1019 13.1296 44.3898 13.3292 44.766 13.4905C45.15 13.6517 45.5992 13.79 46.1136 13.9051L47.5764 14.2392C48.4211 14.4235 49.1697 14.6691 49.8224 14.9763C50.4751 15.2834 51.0241 15.6482 51.4694 16.0705C51.9225 16.4928 52.2642 16.9804 52.4945 17.5332C52.7249 18.0861 52.8401 18.7042 52.8401 19.3876C52.8401 20.4779 52.5674 21.4148 52.0223 22.1979C51.4848 22.9735 50.7092 23.5686 49.6957 23.9833C48.6821 24.3979 47.4612 24.6052 46.033 24.6052ZM57.684 17.0379V24.3748H53.5836V7.21327H57.5342V13.8705H57.684C57.9757 13.0797 58.4518 12.4615 59.1122 12.0162C59.7726 11.5632 60.5864 11.3367 61.554 11.3367C62.4524 11.3367 63.2356 11.5402 63.9036 11.9471C64.5793 12.3463 65.1014 12.9069 65.47 13.6287C65.8386 14.3505 66.0229 15.199 66.0229 16.1741V24.3748H61.9226V16.9804C61.9226 16.2663 61.7421 15.7096 61.3812 15.3103C61.0203 14.9033 60.5097 14.6998 59.8493 14.6998C59.4194 14.6998 59.0393 14.792 58.7091 14.9763C58.3866 15.1605 58.1332 15.4293 57.9489 15.7826C57.7723 16.128 57.684 16.5465 57.684 17.0379ZM70.9129 24.6052C70.0913 24.6052 69.358 24.467 68.713 24.1905C68.0757 23.9064 67.5766 23.4841 67.2157 22.9236C66.8548 22.363 66.6743 21.6566 66.6743 20.8043C66.6743 20.0902 66.7972 19.4874 67.0429 18.996C67.2963 18.5046 67.6418 18.1053 68.0795 17.7981C68.5248 17.491 69.0355 17.2568 69.6114 17.0956C70.1873 16.9266 70.8015 16.8191 71.4542 16.773C72.1837 16.7039 72.7711 16.6348 73.2164 16.5658C73.6618 16.4967 73.9843 16.3892 74.184 16.2432C74.3913 16.0974 74.4949 15.8939 74.4949 15.6328V15.5752C74.4949 15.1529 74.3491 14.8227 74.0573 14.5847C73.7655 14.3466 73.3662 14.2276 72.8594 14.2276C72.3143 14.2276 71.8765 14.3466 71.5464 14.5847C71.2239 14.8227 71.0166 15.1452 70.9244 15.5522L67.1581 15.4255C67.2656 14.6423 67.5497 13.9435 68.0104 13.3292C68.4788 12.7072 69.12 12.2197 69.9339 11.8665C70.7555 11.5133 71.746 11.3367 72.9055 11.3367C73.7194 11.3367 74.4719 11.4326 75.163 11.6246C75.854 11.8165 76.4568 12.0969 76.9713 12.4654C77.4857 12.834 77.885 13.2832 78.1692 13.813C78.4532 14.3428 78.5953 14.9456 78.5953 15.6213V24.3748H74.7368V22.5665H74.6446C74.4066 23.0119 74.111 23.3843 73.7578 23.6838C73.4046 23.9833 72.99 24.2136 72.5139 24.3748C72.0455 24.5284 71.5118 24.6052 70.9129 24.6052ZM72.1683 21.91C72.606 21.91 73.0015 21.8217 73.3547 21.6451C73.7156 21.4608 73.9996 21.2113 74.207 20.8965C74.422 20.5816 74.5295 20.213 74.5295 19.7907V18.5813C74.4143 18.6428 74.2723 18.7004 74.1034 18.7542C73.9421 18.8002 73.7616 18.8463 73.562 18.8923C73.3624 18.9384 73.1589 18.9768 72.9515 19.0075C72.7519 19.0382 72.56 19.069 72.3757 19.0996C71.9841 19.1534 71.65 19.2494 71.3736 19.3876C71.1049 19.5181 70.9014 19.6832 70.7632 19.8829C70.6249 20.0825 70.5558 20.3244 70.5558 20.6085C70.5558 21.0308 70.7056 21.3533 71.005 21.576C71.3045 21.7986 71.6923 21.91 72.1683 21.91ZM79.8344 29.1892V11.4979H83.8885V13.7093H84.0269C84.1881 13.3177 84.4224 12.9415 84.729 12.5806C85.0443 12.212 85.4398 11.9125 85.9155 11.6822C86.3991 11.4519 86.9825 11.3367 87.6666 11.3367C88.5645 11.3367 89.4019 11.5747 90.1772 12.0508C90.9525 12.5192 91.5784 13.2409 92.0548 14.2161C92.5384 15.1913 92.7798 16.4352 92.7798 17.9479C92.7798 19.4068 92.5502 20.6277 92.0894 21.6106C91.6287 22.5934 91.0067 23.3306 90.2236 23.822C89.4475 24.3134 88.5842 24.5591 87.632 24.5591C86.9865 24.5591 86.4258 24.4516 85.9501 24.2366C85.4736 24.0216 85.075 23.7413 84.7526 23.3958C84.4373 23.0503 84.1959 22.6779 84.0269 22.2786H83.9341V29.1892H79.8344ZM86.2151 21.3687C86.7215 21.3687 87.1476 21.2266 87.4936 20.9425C87.8467 20.6584 88.1116 20.2591 88.2885 19.7446C88.4725 19.2302 88.5645 18.6313 88.5645 17.9479C88.5645 17.2568 88.4725 16.6578 88.2885 16.1511C88.1116 15.6366 87.8506 15.2373 87.5054 14.9533C87.1594 14.6691 86.7293 14.5271 86.2151 14.5271C85.7158 14.5271 85.2897 14.6653 84.9366 14.9417C84.5836 15.2182 84.3107 15.6136 84.1189 16.128C83.9341 16.6348 83.8421 17.2414 83.8421 17.9479C83.8421 18.639 83.9341 19.2417 84.1189 19.7562C84.3107 20.263 84.5836 20.6584 84.9366 20.9425C85.2897 21.2266 85.7158 21.3687 86.2151 21.3687ZM99.5473 24.6167C98.1965 24.6167 97.0328 24.3518 96.0578 23.822C95.0828 23.2845 94.3335 22.5205 93.8114 21.5299C93.2972 20.5394 93.0401 19.3569 93.0401 17.9824C93.0401 16.6541 93.3011 15.4946 93.8232 14.5041C94.3453 13.5059 95.0828 12.7303 96.035 12.1774C96.9864 11.6169 98.1077 11.3367 99.3979 11.3367C100.312 11.3367 101.148 11.4825 101.909 11.7743C102.677 12.0584 103.337 12.4807 103.89 13.0413C104.451 13.5942 104.881 14.2775 105.179 15.0915C105.487 15.9054 105.64 16.846 105.64 17.9133V18.9269H94.4569V16.5658H103.694L101.782 17.1186C101.782 16.5273 101.694 16.0244 101.517 15.6097C101.341 15.1874 101.08 14.8611 100.734 14.6307C100.389 14.4004 99.9586 14.2852 99.4435 14.2852C98.9293 14.2852 98.4953 14.4004 98.1423 14.6307C97.7892 14.8611 97.5203 15.1836 97.3363 15.5982C97.1515 16.0052 97.0595 16.489 97.0595 17.0495V18.7426C97.0595 19.3415 97.1633 19.8598 97.3709 20.2976C97.5856 20.7352 97.8851 21.0731 98.2688 21.3111C98.6604 21.5415 99.1102 21.6566 99.6165 21.6566C99.9696 21.6566 100.293 21.6067 100.584 21.5069C100.876 21.4071 101.125 21.2611 101.333 21.0692C101.541 20.8696 101.698 20.6316 101.805 20.3551L105.56 20.4587C105.406 21.3034 105.069 22.0367 104.547 22.6587C104.024 23.2806 103.341 23.7644 102.496 24.1099C101.651 24.4478 100.669 24.6167 99.5473 24.6167Z" fill="white"/>
</svg>
