<svg width="128" height="33" viewBox="0 0 128 33" fill="none" xmlns="http://www.w3.org/2000/svg">
<g clip-path="url(#clip0_12382_44856)">
<path fill-rule="evenodd" clip-rule="evenodd" d="M14.6355 21.5751L14.6225 31.8432L16.7916 31.8459L16.8046 21.5414L20.7598 31.0565L22.7628 30.224L18.8325 20.7689L26.0636 28.0185L27.5993 26.4866L20.3371 19.206L29.8351 23.1478L30.6665 21.1444L21.1702 17.2033H31.4513V15.0343H21.195L30.6765 11.1183L29.8485 9.11355L20.405 13.0137L27.6655 5.82745L26.1397 4.28583L18.7862 11.5641L22.7484 2.00796L20.7447 1.17722L16.8184 10.6468L16.8314 0.394595L14.6624 0.391846L14.6493 10.7054L10.6905 1.18179L8.68765 2.01436L12.6163 11.4656L5.38814 4.219L3.85244 5.75081L11.1123 13.0292L1.61746 9.08862L0.786035 11.092L10.2851 15.0343H0V17.2033H10.2608L0.778818 21.1194L1.6068 23.1242L11.0449 19.2263L3.78622 26.4107L5.31208 27.9523L12.6578 20.6817L8.69881 30.2304L10.7025 31.0611L14.6355 21.5751Z" fill="white"/>
<path d="M47.6723 26.1834C45.9582 26.1834 44.425 25.7902 43.0726 25.0039C41.7201 24.2177 40.6587 23.1405 39.8881 21.7723C39.1333 20.3885 38.7559 18.8395 38.7559 17.1254C38.7559 15.4585 39.1411 13.9567 39.9117 12.62C40.6823 11.2833 41.7516 10.2375 43.1197 9.48271C44.4879 8.72788 46.029 8.35046 47.7431 8.35046C48.6709 8.35046 49.5044 8.43695 50.2435 8.60994C50.9983 8.76719 51.6116 8.9559 52.0834 9.17606C52.5551 9.3805 52.8775 9.56134 53.0505 9.7186L52.0126 11.9359C51.0376 11.1496 49.5987 10.7565 47.6959 10.7565C46.4378 10.7565 45.3449 11.0317 44.4171 11.5821C43.4893 12.1325 42.7816 12.8795 42.2941 13.823C41.8066 14.7665 41.5629 15.8202 41.5629 16.9839C41.5629 18.3048 41.8224 19.4842 42.3413 20.5221C42.876 21.56 43.6072 22.3699 44.535 22.9517C45.4786 23.5179 46.5401 23.8009 47.7195 23.8009C48.4586 23.8009 49.1663 23.7144 49.8425 23.5415C50.5187 23.3528 51.0926 23.0618 51.5644 22.6687V19.3191H48.0026V16.8895H54.1827V23.683C53.6166 24.3906 52.7596 24.9882 51.6116 25.4757C50.4793 25.9475 49.1663 26.1834 47.6723 26.1834ZM55.9552 15.1204H58.5027V17.2433C58.7543 16.5199 59.1632 15.9381 59.7293 15.4978C60.2955 15.0575 60.9402 14.8373 61.6636 14.8373C62.1668 14.8373 62.5128 14.8845 62.7015 14.9788L62.3477 17.55C62.2061 17.4556 61.8995 17.4084 61.4277 17.4084C60.6886 17.4084 60.0124 17.6443 59.3991 18.1161C58.8015 18.5879 58.5027 19.3427 58.5027 20.3806V25.9475H55.9552V15.1204ZM68.348 26.1834C67.373 26.1834 66.4688 25.9554 65.6354 25.4993C64.8176 25.0275 64.1571 24.3671 63.6539 23.5179C63.1664 22.653 62.9227 21.6465 62.9227 20.4985C62.9227 19.3663 63.135 18.3756 63.5596 17.5264C63.9999 16.6772 64.621 16.0167 65.4231 15.545C66.2251 15.0732 67.1686 14.8373 68.2537 14.8373C68.8827 14.8373 69.4724 14.9474 70.0228 15.1675C70.5732 15.3877 71.0371 15.6629 71.4145 15.9931C71.792 16.3077 72.0436 16.6222 72.1694 16.9367L72.2165 15.1204H74.6462V25.9475H72.2401L72.193 24.0368C71.9256 24.6029 71.4381 25.1062 70.7305 25.5465C70.0228 25.9711 69.2287 26.1834 68.348 26.1834ZM68.7726 24.0604C69.669 24.0604 70.4238 23.7538 71.0371 23.1405C71.6504 22.5114 71.9571 21.6937 71.9571 20.6873V20.5221C71.9571 19.8459 71.8155 19.2405 71.5325 18.7058C71.2494 18.1711 70.8641 17.7544 70.3766 17.4556C69.8891 17.1568 69.3545 17.0074 68.7726 17.0074C67.7662 17.0074 66.9878 17.3377 66.4374 17.9982C65.887 18.6429 65.6118 19.4842 65.6118 20.5221C65.6118 21.5758 65.8791 22.4328 66.4138 23.0933C66.9642 23.738 67.7505 24.0604 68.7726 24.0604ZM77.1756 15.1204H79.6292V17.1254C80.4941 15.6 81.8466 14.8373 83.6865 14.8373C85.2118 14.8373 86.4463 15.3248 87.3899 16.2998C88.3334 17.2591 88.8052 18.6508 88.8052 20.475C88.8052 21.6072 88.5693 22.6058 88.0975 23.4707C87.6415 24.3356 87.0124 25.004 86.2104 25.4757C85.4241 25.9475 84.5435 26.1834 83.5685 26.1834C82.6564 26.1834 81.8623 26.0261 81.1861 25.7116C80.5256 25.3814 80.0067 24.9175 79.6292 24.3199L79.6528 31.6795H77.1756V15.1204ZM82.9788 24.0368C84.001 24.0368 84.7873 23.7144 85.3377 23.0697C85.888 22.4092 86.1632 21.5679 86.1632 20.5457C86.1632 19.4764 85.888 18.6272 85.3377 17.9982C84.803 17.3534 84.0167 17.031 82.9788 17.031C82.4127 17.031 81.878 17.1726 81.3748 17.4556C80.8873 17.723 80.4941 18.1161 80.1954 18.6351C79.9123 19.1383 79.7708 19.728 79.7708 20.4042V20.5693C79.7708 21.2455 79.9123 21.851 80.1954 22.3856C80.4941 22.9046 80.8873 23.3134 81.3748 23.6122C81.8623 23.8953 82.3969 24.0368 82.9788 24.0368ZM90.7001 8.60994H93.1769V15.1204L93.0825 17.1254C93.3813 16.4649 93.861 15.9224 94.5214 15.4978C95.1819 15.0575 95.9525 14.8373 96.8331 14.8373C97.9496 14.8373 98.8067 15.0732 99.4043 15.545C100.002 16.001 100.403 16.6458 100.607 17.4792C100.812 18.3127 100.914 19.3977 100.914 20.7344V25.9475H98.39V20.7108C98.39 19.7988 98.3349 19.0832 98.2248 18.5643C98.1305 18.0453 97.926 17.6522 97.6115 17.3849C97.3127 17.1175 96.8724 16.9839 96.2906 16.9839C95.8188 16.9839 95.3392 17.1254 94.8517 17.4084C94.3799 17.6915 93.9868 18.1082 93.6723 18.6586C93.3577 19.1933 93.2005 19.8302 93.2005 20.5693V25.9475H90.7001V8.60994ZM103.395 15.1204H106.037V25.9475H103.395V15.1204ZM104.693 13.0918C104.205 13.0918 103.796 12.9266 103.466 12.5964C103.136 12.2662 102.971 11.8573 102.971 11.3698C102.971 10.9295 103.136 10.5521 103.466 10.2375C103.796 9.92303 104.205 9.76577 104.693 9.76577C105.165 9.76577 105.566 9.92303 105.896 10.2375C106.226 10.5521 106.391 10.9295 106.391 11.3698C106.391 11.8573 106.226 12.2662 105.896 12.5964C105.581 12.9266 105.18 13.0918 104.693 13.0918ZM109.565 17.1962H107.654V15.1204H109.565V10.7093L112.136 10.1432V15.1204H114.636V17.1962H112.136V25.9475H109.565V17.1962ZM120.882 26.1834C119.592 26.1834 118.515 25.9318 117.65 25.4285C116.785 24.9096 116.148 24.2255 115.739 23.3763C115.33 22.5114 115.126 21.5679 115.126 20.5457C115.126 19.3977 115.362 18.3913 115.834 17.5264C116.321 16.6615 116.989 16.001 117.839 15.545C118.688 15.0732 119.647 14.8373 120.716 14.8373C122.383 14.8373 123.618 15.3012 124.42 16.229C125.238 17.1411 125.646 18.4306 125.646 20.0975C125.646 20.5221 125.623 20.9625 125.576 21.4185H117.792C117.964 22.3778 118.303 23.0697 118.806 23.4943C119.325 23.9189 120.04 24.1312 120.952 24.1312C121.707 24.1312 122.328 24.0683 122.816 23.9425C123.303 23.8167 123.752 23.6437 124.16 23.4235L124.939 25.2398C124.546 25.4914 124.011 25.7116 123.335 25.9003C122.659 26.089 121.841 26.1834 120.882 26.1834ZM123.17 19.6494C123.185 18.6744 122.973 17.9903 122.533 17.5972C122.092 17.1883 121.463 16.9839 120.646 16.9839C118.995 16.9839 118.043 17.8724 117.792 19.6494H123.17Z" fill="white"/>
</g>
<defs>
<clipPath id="clip0_12382_44856">
<rect width="127.378" height="32.2376" fill="white"/>
</clipPath>
</defs>
</svg>
