<svg width="120" height="32" viewBox="0 0 120 32" fill="none" xmlns="http://www.w3.org/2000/svg">
<g clip-path="url(#clip0_12382_44847)">
<mask id="mask0_12382_44847" style="mask-type:luminance" maskUnits="userSpaceOnUse" x="0" y="0" width="36" height="32">
<path d="M35.3828 0H0V31.4513H35.3828V0Z" fill="white"/>
</mask>
<g mask="url(#mask0_12382_44847)">
<path d="M4.84106 23.7754C6.13857 24.6646 8.24226 24.6646 9.53979 23.7754C10.8372 22.8862 10.8372 21.4446 9.53979 20.5555C8.24226 19.6662 6.13857 19.6662 4.84106 20.5555C3.54354 21.4446 3.54354 22.8862 4.84106 23.7754Z" fill="white"/>
<path d="M18.308 11.7008C20.2543 13.0345 23.4098 13.0345 25.3561 11.7008C27.3023 10.367 27.3023 8.2046 25.3561 6.87091C23.4098 5.53717 20.2543 5.53717 18.308 6.87091C16.3618 8.2046 16.3618 10.367 18.308 11.7008Z" fill="white"/>
<path d="M11.1595 17.7381C12.7814 18.8495 15.411 18.8495 17.0329 17.7381C18.6548 16.6266 18.6548 14.8247 17.0329 13.7132C15.411 12.6018 12.7814 12.6018 11.1595 13.7132C9.53765 14.8247 9.53765 16.6266 11.1595 17.7381Z" fill="white"/>
<path d="M0.729849 16.9331C1.70298 17.5999 3.28074 17.5999 4.25387 16.9331C5.227 16.2662 5.227 15.185 4.25387 14.5181C3.28074 13.8512 1.70298 13.8512 0.729849 14.5181C-0.243283 15.185 -0.243283 16.2662 0.729849 16.9331Z" fill="white"/>
<path d="M11.1595 4.85847C12.7814 5.96991 15.411 5.96991 17.0329 4.85847C18.6548 3.74703 18.6548 1.94502 17.0329 0.833586C15.411 -0.277862 12.7814 -0.277862 11.1595 0.833586C9.53765 1.94502 9.53765 3.74703 11.1595 4.85847Z" fill="white"/>
<path d="M4.84105 10.8959C6.13856 11.7851 8.24226 11.7851 9.53978 10.8959C10.8372 10.0068 10.8372 8.56513 9.53978 7.67602C8.24226 6.78687 6.13856 6.78687 4.84105 7.67602C3.54354 8.56513 3.54355 10.0068 4.84105 10.8959Z" fill="white"/>
<path d="M11.1595 30.6178C12.7814 31.7292 15.411 31.7292 17.0329 30.6178C18.6548 29.5063 18.6548 27.7043 17.0329 26.5928C15.411 25.4814 12.7814 25.4814 11.1595 26.5928C9.53765 27.7043 9.53765 29.5063 11.1595 30.6178Z" fill="white"/>
<path d="M26.875 18.1407C28.8213 19.4744 31.9768 19.4744 33.923 18.1407C35.8694 16.807 35.8694 14.6444 33.923 13.3108C31.9768 11.977 28.8213 11.977 26.875 13.3108C24.9287 14.6444 24.9287 16.807 26.875 18.1407Z" fill="white"/>
<path d="M18.308 24.5804C20.2543 25.9142 23.4098 25.9142 25.3561 24.5804C27.3023 23.2467 27.3023 21.0844 25.3561 19.7505C23.4098 18.4168 20.2543 18.4168 18.308 19.7505C16.3618 21.0844 16.3618 23.2467 18.308 24.5804Z" fill="white"/>
</g>
<path d="M42.1685 23.5885L46.8862 7.07654H51.368L56.0621 23.5885H53.4438L52.3587 19.6964H45.8954L44.8104 23.5885H42.1685ZM46.5323 17.3375H51.7218L49.3158 8.65697H48.9384L46.5323 17.3375ZM60.4693 23.8008C59.5886 23.8008 58.8024 23.6042 58.1104 23.2111C57.4185 22.8179 56.876 22.2597 56.4828 21.5363C56.0897 20.8129 55.8931 19.948 55.8931 18.9416V11.9594H58.3227V18.7764C58.3227 19.7829 58.5743 20.5298 59.0776 21.0173C59.5808 21.4891 60.2806 21.725 61.1769 21.725C62.1677 21.725 62.9618 21.3948 63.5594 20.7343C64.1727 20.0581 64.4793 19.0909 64.4793 17.8329V11.9594H66.9089V23.5885H64.5265V21.8429H64.1491C63.9289 22.3147 63.5358 22.7629 62.9697 23.1875C62.4035 23.5964 61.5701 23.8008 60.4693 23.8008ZM72.9537 23.9187C71.9944 23.9187 71.1059 23.6828 70.2882 23.2111C69.4704 22.7393 68.8099 22.0631 68.3067 21.1825C67.8192 20.2861 67.5755 19.2089 67.5755 17.9508V17.597C67.5755 16.3547 67.8192 15.2853 68.3067 14.389C68.7942 13.4926 69.4468 12.8085 70.2646 12.3368C71.0823 11.865 71.9787 11.6291 72.9537 11.6291C73.7085 11.6291 74.3375 11.7235 74.8407 11.9122C75.3597 12.1009 75.7843 12.3446 76.1145 12.6434C76.4448 12.9265 76.6964 13.2253 76.8694 13.5398H77.2468V7.07654H79.6765V23.5885H77.2939V21.9373H76.9165C76.6177 22.4405 76.1617 22.8966 75.5484 23.3054C74.9508 23.7143 74.0859 23.9187 72.9537 23.9187ZM73.6377 21.7958C74.6913 21.7958 75.5563 21.4577 76.2325 20.7815C76.9244 20.1053 77.2704 19.1381 77.2704 17.8801V17.6678C77.2704 16.4254 76.9323 15.4662 76.2561 14.79C75.5798 14.1138 74.7071 13.7757 73.6377 13.7757C72.5998 13.7757 71.7349 14.1138 71.043 14.79C70.3668 15.4662 70.0287 16.4254 70.0287 17.6678V17.8801C70.0287 19.1381 70.3668 20.1053 71.043 20.7815C71.7349 21.4577 72.5998 21.7958 73.6377 21.7958ZM81.1776 23.5885V7.07654H82.5929V23.5885H81.1776ZM87.9074 23.9187C87.1053 23.9187 86.3741 23.7851 85.7136 23.5177C85.0689 23.2347 84.5578 22.8258 84.1804 22.2911C83.803 21.7564 83.6142 21.1117 83.6142 20.3569C83.6142 19.5863 83.803 18.9494 84.1804 18.4462C84.5578 17.943 85.0689 17.5656 85.7136 17.3139C86.3584 17.0623 87.0739 16.9365 87.8602 16.9365H92.0589V16.0166C92.0589 15.0888 91.7916 14.3654 91.2569 13.8464C90.7222 13.3275 89.9438 13.068 88.9217 13.068C87.9152 13.068 87.1132 13.3196 86.5156 13.8228C85.9338 14.3103 85.5406 14.9708 85.3362 15.8043L83.9681 15.4033C84.1568 14.7271 84.4556 14.1216 84.8644 13.587C85.2733 13.0366 85.8158 12.6041 86.492 12.2896C87.1682 11.9594 87.9781 11.7942 88.9217 11.7942C90.3684 11.7942 91.4849 12.1717 92.2712 12.9265C93.0732 13.6813 93.4742 14.7349 93.4742 16.0873V21.6542C93.4742 22.126 93.6944 22.3619 94.1347 22.3619H95.2434V23.5885H93.7337C93.2462 23.5885 92.8609 23.447 92.5779 23.1639C92.2948 22.8651 92.1533 22.4641 92.1533 21.9609V21.7958H91.9174C91.713 22.1417 91.4456 22.4798 91.1154 22.8101C90.8009 23.1403 90.3841 23.4076 89.8652 23.6121C89.3463 23.8165 88.6936 23.9187 87.9074 23.9187ZM88.0017 22.6449C89.2126 22.6449 90.1876 22.2833 90.9267 21.5599C91.6815 20.8208 92.0589 19.7829 92.0589 18.4462V18.1631H87.8838C87.066 18.1631 86.382 18.344 85.8316 18.7057C85.2969 19.0516 85.0296 19.5942 85.0296 20.3333C85.0296 21.0724 85.3048 21.6464 85.8552 22.0552C86.4213 22.4484 87.1368 22.6449 88.0017 22.6449ZM101.712 23.9187C100.454 23.9187 99.4712 23.675 98.7636 23.1875C98.0716 22.6843 97.5606 22.1181 97.2303 21.4891H96.9473V23.5885H95.5791V7.07654H96.9944V14.1295H97.2775C97.4819 13.7364 97.765 13.3668 98.1267 13.0208C98.5041 12.6592 98.9837 12.3682 99.5656 12.1481C100.163 11.9122 100.879 11.7942 101.712 11.7942C102.75 11.7942 103.686 12.038 104.519 12.5255C105.353 12.9973 106.013 13.6813 106.501 14.5777C106.988 15.4583 107.232 16.5041 107.232 17.715V17.998C107.232 19.2089 106.98 20.2625 106.477 21.1589C105.99 22.0395 105.329 22.7236 104.496 23.2111C103.662 23.6828 102.734 23.9187 101.712 23.9187ZM101.382 22.6449C102.687 22.6449 103.741 22.2282 104.543 21.3948C105.36 20.5613 105.769 19.4133 105.769 17.9508V17.7621C105.769 16.2996 105.36 15.1517 104.543 14.3182C103.741 13.4847 102.687 13.068 101.382 13.068C100.092 13.068 99.0388 13.4847 98.221 14.3182C97.4033 15.1517 96.9944 16.2996 96.9944 17.7621V17.9508C96.9944 19.4133 97.4033 20.5613 98.221 21.3948C99.0388 22.2282 100.092 22.6449 101.382 22.6449ZM113.023 23.9187C111.639 23.9187 110.452 23.5885 109.461 22.928C108.486 22.2675 107.888 21.1746 107.668 19.6492L109.06 19.3897C109.186 20.2232 109.437 20.8837 109.815 21.3712C110.208 21.8429 110.68 22.181 111.23 22.3855C111.796 22.5899 112.394 22.6921 113.023 22.6921C113.966 22.6921 114.721 22.5034 115.287 22.126C115.869 21.7329 116.16 21.1982 116.16 20.522C116.16 19.8301 115.885 19.3504 115.334 19.0831C114.8 18.8158 114.084 18.6035 113.188 18.4462L112.103 18.2575C111.379 18.1317 110.727 17.943 110.145 17.6914C109.563 17.424 109.099 17.0702 108.753 16.6299C108.423 16.1896 108.258 15.6392 108.258 14.9787C108.258 13.988 108.643 13.2095 109.414 12.6434C110.2 12.0773 111.238 11.7942 112.527 11.7942C113.833 11.7942 114.878 12.093 115.665 12.6906C116.467 13.2725 116.97 14.1216 117.174 15.2382L115.853 15.5212C115.696 14.6091 115.319 13.9644 114.721 13.587C114.139 13.2095 113.408 13.0208 112.527 13.0208C111.663 13.0208 110.971 13.186 110.452 13.5162C109.933 13.8464 109.673 14.3339 109.673 14.9787C109.673 15.6077 109.909 16.0716 110.381 16.3704C110.853 16.6535 111.497 16.8658 112.315 17.0073L113.4 17.196C114.187 17.3218 114.894 17.5105 115.523 17.7621C116.152 17.998 116.648 18.3361 117.009 18.7764C117.387 19.2168 117.575 19.7986 117.575 20.522C117.575 21.6071 117.167 22.4484 116.349 23.046C115.531 23.6278 114.422 23.9187 113.023 23.9187Z" fill="white"/>
</g>
<defs>
<clipPath id="clip0_12382_44847">
<rect width="119.515" height="31.4513" fill="white"/>
</clipPath>
</defs>
</svg>
