<svg width="103" height="32" viewBox="0 0 103 32" fill="none" xmlns="http://www.w3.org/2000/svg">
<path d="M13.2325 1.61292H30.1401L17.7097 20.1393H0.802002L13.2325 1.61292Z" fill="white"/>
<path d="M13.9728 21.8562L9.1582 29.0319H26.8678L39.2983 10.5056H26.2275L18.6116 21.8562H13.9728Z" fill="white"/>
<path d="M46.3906 24.3747V24.1388H46.4142C46.9803 24.1388 47.4364 23.9894 47.7823 23.6907C48.1283 23.3919 48.3013 22.9594 48.3013 22.3933V8.80631C48.3013 8.24019 48.1283 7.78415 47.7823 7.43818C47.4364 7.09222 46.9803 6.91923 46.4142 6.91923H46.3906V6.68335H53.9154V6.91923H53.821C53.2549 6.91923 52.7988 7.09222 52.4529 7.43818C52.1069 7.78415 51.9339 8.24019 51.9339 8.80631V22.4876C51.9339 22.9909 52.0519 23.384 52.2878 23.6671C52.5394 23.9344 52.9718 24.0681 53.5851 24.0681H54.0805C55.4801 24.0681 56.6595 23.6356 57.6188 22.7707C58.578 21.9058 59.1835 20.6871 59.4351 19.1145H59.671L58.9633 24.3747H46.3906ZM63.0285 24.705C62.0692 24.705 61.2986 24.4455 60.7168 23.9265C60.1349 23.4076 59.844 22.7235 59.844 21.8743C59.844 21.5127 59.9069 21.1746 60.0327 20.86C60.1585 20.5298 60.3944 20.2074 60.7404 19.8929C61.1021 19.5784 61.5974 19.256 62.2265 18.9258C62.8555 18.5798 63.6889 18.2181 64.7268 17.8407L66.9206 17.0387V15.2696C66.9206 14.3732 66.779 13.6655 66.496 13.1466C66.2129 12.6119 65.8198 12.3446 65.3165 12.3446C64.719 12.3603 64.2079 12.7535 63.7833 13.524C63.3744 14.2946 63.0992 15.3639 62.9577 16.7321L60.4101 15.2696C60.6775 14.6248 61.0863 14.0587 61.6367 13.5712C62.1871 13.0837 62.8162 12.7063 63.5238 12.4389C64.2472 12.1716 65.002 12.0379 65.7883 12.0379C67.125 12.0379 68.2101 12.4154 69.0435 13.1702C69.8927 13.9093 70.3173 14.9236 70.3173 16.2131V21.8979C70.3173 22.81 70.624 23.2661 71.2373 23.2661C71.599 23.2661 71.9528 23.0695 72.2987 22.6764L72.4875 22.8415C72.0786 23.3919 71.5832 23.8401 71.0014 24.186C70.4195 24.532 69.8534 24.705 69.303 24.705C68.7054 24.705 68.1865 24.5005 67.7462 24.0917C67.3216 23.6828 67.0542 23.1403 66.9442 22.4641C66.1736 23.2503 65.4974 23.8243 64.9155 24.186C64.3494 24.532 63.7204 24.705 63.0285 24.705ZM64.7976 23.2425C65.1436 23.2425 65.4738 23.156 65.7883 22.983C66.1186 22.81 66.4881 22.527 66.897 22.1338L66.9206 17.3454L65.977 17.6992C65.175 17.998 64.5617 18.3046 64.1371 18.6191C63.7125 18.9179 63.4137 19.256 63.2408 19.6334C63.0835 20.0109 63.0049 20.4433 63.0049 20.9308C63.0049 21.607 63.17 22.1653 63.5002 22.6056C63.8462 23.0302 64.2787 23.2425 64.7976 23.2425ZM70.851 29.6586C70.2062 29.6586 69.585 29.5327 68.9875 29.2811L69.9074 26.5213C70.3006 26.6785 70.7252 26.8122 71.1812 26.9223C71.653 27.0324 72.1247 27.0874 72.5965 27.0874C73.1941 27.0874 73.7523 26.9616 74.2713 26.71C74.806 26.4741 75.207 26.0259 75.4743 25.3654L75.7338 24.7286L71.0633 13.9014C70.906 13.524 70.7016 13.2252 70.45 13.0051C70.1826 12.7692 69.8209 12.6434 69.3649 12.6277V12.3918H76.182V12.6277C75.7574 12.6748 75.4271 12.8242 75.1912 13.0758C74.9711 13.3274 74.861 13.6498 74.861 14.043C74.861 14.3889 74.9396 14.7428 75.0969 15.1044L77.4793 20.6949L79.8619 15.1044C80.0192 14.7428 80.0978 14.3889 80.0978 14.043C80.0978 13.6498 79.9799 13.3274 79.744 13.0758C79.5238 12.8242 79.1936 12.6748 78.7533 12.6277V12.3918H82.0085V12.6277C81.6468 12.7063 81.3401 12.9422 81.0885 13.3353C80.8369 13.7127 80.5696 14.2317 80.2865 14.8921L75.4743 26.0731C74.9711 27.2368 74.3185 28.1253 73.5165 28.7386C72.7145 29.3519 71.826 29.6586 70.851 29.6586ZM85.9037 24.6578C84.8187 24.6578 83.8515 24.3905 83.0023 23.8558C82.1689 23.3211 81.5163 22.582 81.0445 21.6385C80.5727 20.6792 80.3368 19.5863 80.3368 18.3597C80.3368 17.1016 80.5963 16.0008 81.1153 15.0573C81.6342 14.1137 82.3419 13.3825 83.2382 12.8635C84.1503 12.3289 85.1803 12.0615 86.3283 12.0615C87.2876 12.0615 88.1368 12.2502 88.8759 12.6277C89.6307 13.0051 90.2283 13.5397 90.6686 14.2317C91.1247 14.9079 91.3841 15.6942 91.447 16.5905L91.4706 16.9443H83.5449V17.0623C83.5449 18.7292 83.9144 20.0659 84.6535 21.0723C85.3926 22.0631 86.3834 22.5584 87.6257 22.5584C88.3805 22.5584 89.096 22.3776 89.7722 22.0159C90.4642 21.6385 91.0224 21.1352 91.447 20.5062L91.6593 20.577C91.392 21.379 90.9753 22.0866 90.4091 22.6999C89.843 23.3132 89.1747 23.7929 88.4041 24.1388C87.6336 24.4848 86.8001 24.6578 85.9037 24.6578ZM83.5685 16.5905H88.3569C88.3569 15.3482 88.1525 14.3418 87.7436 13.5712C87.3505 12.8006 86.7922 12.4154 86.0688 12.4154C85.3769 12.4154 84.8029 12.7928 84.3469 13.5476C83.8908 14.3024 83.6314 15.3167 83.5685 16.5905ZM91.0625 24.3747V24.1388H91.0861C91.6522 24.1388 92.1083 23.9659 92.4543 23.6199C92.8002 23.2739 92.9732 22.8179 92.9732 22.2518V14.5147C92.9732 13.9172 92.8474 13.4533 92.5958 13.123C92.3599 12.7928 91.8488 12.6277 91.0625 12.6277V12.3918H93.3978C94.2313 12.3918 94.8603 12.3131 95.2849 12.1559C95.7095 11.9829 96.0083 11.7627 96.1812 11.4954H96.2992L96.3228 15.3639C96.5272 14.8921 96.7867 14.3968 97.1012 13.8778C97.4314 13.3589 97.8403 12.9264 98.3278 12.5805C98.831 12.2188 99.4286 12.0379 100.121 12.0379C100.356 12.0379 100.608 12.0615 100.875 12.1087C101.143 12.1559 101.426 12.2424 101.725 12.3682L100.805 15.128C100.238 14.8135 99.7431 14.5934 99.3185 14.4676C98.9096 14.3418 98.548 14.2788 98.2334 14.2788C97.6988 14.2788 97.2978 14.444 97.0304 14.7742C96.7788 15.1044 96.5587 15.4976 96.37 15.9536V22.2518C96.37 22.8179 96.5429 23.2739 96.8889 23.6199C97.2349 23.9659 97.6909 24.1388 98.257 24.1388H98.2806V24.3747H91.0625Z" fill="white"/>
</svg>
