<svg width="110" height="32" viewBox="0 0 110 32" fill="none" xmlns="http://www.w3.org/2000/svg">
<g clip-path="url(#clip0_12382_44844)">
<mask id="mask0_12382_44844" style="mask-type:luminance" maskUnits="userSpaceOnUse" x="0" y="0" width="48" height="32">
<path d="M47.177 0H0V31.4513H47.177V0Z" fill="white"/>
</mask>
<g mask="url(#mask0_12382_44844)">
<path d="M15.7257 31.4513H20.5002L19.1102 30.0613C18.7416 29.6927 18.2416 29.4856 17.7203 29.4856H15.7257C8.12624 29.4856 1.96571 23.3251 1.96571 15.7257C1.96571 8.12624 8.12624 1.96572 15.7257 1.96571H31.4513C39.0508 1.96571 45.2113 8.12624 45.2113 15.7257C45.2113 23.3251 39.0508 29.4856 31.4513 29.4856H25.5687C24.7866 29.4856 24.0367 29.175 23.4837 28.6221L21.8553 26.9936C20.9337 26.072 19.6837 25.5542 18.3803 25.5542H15.7257C10.2975 25.5542 5.89713 21.1539 5.89713 15.7257C5.89713 10.2975 10.2975 5.89713 15.7257 5.89713H31.4513C36.8795 5.89713 41.2799 10.2975 41.2799 15.7257C41.2799 21.1539 36.8795 25.5542 31.4513 25.5542H27.6741C26.8921 25.5542 26.1421 25.2436 25.5891 24.6906L23.9607 23.0622C23.0391 22.1406 21.7891 21.6228 20.4858 21.6228H15.7257C12.4688 21.6228 9.82854 18.9825 9.82854 15.7257C9.82854 12.4688 12.4688 9.82854 15.7257 9.82854H31.4513C34.7082 9.82854 37.3485 12.4688 37.3485 15.7257C37.3485 18.9428 34.7722 21.5583 31.5702 21.6216L31.5696 21.6228H30.1312C29.3492 21.6228 28.5993 21.3121 28.0463 20.7592L26.4178 19.1308C25.6616 18.3745 24.6843 17.8902 23.6379 17.7408L23.5885 17.6914H15.7257C14.64 17.6914 13.76 16.8113 13.76 15.7257C13.76 14.64 14.64 13.76 15.7257 13.76H31.4513C32.537 13.76 33.417 14.64 33.417 15.7257C33.417 16.8113 32.537 17.6914 31.4513 17.6914H27.5199L28.9099 19.0814C29.2785 19.45 29.7785 19.6571 30.2998 19.6571H31.4513C33.6226 19.6571 35.3828 17.8969 35.3828 15.7257C35.3828 13.5544 33.6226 11.7943 31.4513 11.7943H15.7257C13.5544 11.7943 11.7943 13.5544 11.7943 15.7257C11.7943 17.8969 13.5544 19.6571 15.7257 19.6571H22.9429C23.7249 19.6571 24.4749 19.9677 25.0279 20.5207L26.6563 22.1491C27.5779 23.0707 28.8279 23.5885 30.1312 23.5885H31.9428V23.5734C36.0564 23.3198 39.3142 19.9031 39.3142 15.7257C39.3142 11.3832 35.7938 7.86283 31.4513 7.86283H15.7257C11.3832 7.86283 7.86283 11.3832 7.86283 15.7257C7.86283 20.0682 11.3832 23.5885 15.7257 23.5885H20.4858C21.2678 23.5885 22.0177 23.8992 22.5707 24.4521L24.1992 26.0806C25.1208 27.0022 26.3708 27.5199 27.6741 27.5199H31.4513C37.9651 27.5199 43.2456 22.2395 43.2456 15.7257C43.2456 9.21186 37.9651 3.93142 31.4513 3.93142H15.7257C9.21186 3.93142 3.93142 9.21186 3.93142 15.7257C3.93142 22.2395 9.21186 27.5199 15.7257 27.5199H18.3803C19.1624 27.5199 19.9123 27.8306 20.4653 28.3835L22.0938 30.012C23.0154 30.9336 24.2653 31.4513 25.5687 31.4513H31.4513C40.1364 31.4513 47.177 24.4107 47.177 15.7257C47.177 7.04062 40.1364 -7.59271e-07 31.4513 0L15.7257 3.24943e-06C7.04062 4.0087e-06 -7.59271e-07 7.04063 0 15.7257C7.59271e-07 24.4107 7.04063 31.4513 15.7257 31.4513Z" fill="white"/>
</g>
<path d="M69.5782 23.1011C69.704 23.337 69.7669 23.5414 69.7669 23.7144C69.7826 23.8717 69.7354 24.0211 69.6254 24.1626C69.5153 24.2884 69.3423 24.4063 69.1064 24.5164C68.729 24.6894 68.4302 24.7287 68.21 24.6344C68.0056 24.54 67.8169 24.312 67.6439 23.9503L61.7468 11.4012L55.8968 23.9267C55.7239 24.2884 55.5273 24.5164 55.3071 24.6108C55.1027 24.7051 54.8039 24.6658 54.4108 24.4928C54.1749 24.3985 54.0019 24.2805 53.8918 24.139C53.7975 23.9975 53.7582 23.8245 53.7739 23.6201C53.8053 23.4156 53.884 23.1797 54.0098 22.9124L60.7797 8.78289C60.874 8.59418 61.0077 8.44478 61.1807 8.3347C61.3694 8.2089 61.5659 8.146 61.7704 8.146C61.9119 8.146 62.0456 8.16958 62.1714 8.21676C62.2972 8.26394 62.4073 8.3347 62.5016 8.42906C62.596 8.52341 62.6746 8.64922 62.7375 8.80647L69.5782 23.1011ZM57.3122 19.9167L58.1142 18.1003H65.4266L66.205 19.9167H57.3122ZM74.6521 24.7287C74.2746 24.7287 73.8815 24.6894 73.4726 24.6108C73.0638 24.5321 72.6628 24.4221 72.2696 24.2805C71.8922 24.1233 71.5541 23.9424 71.2553 23.738C70.9723 23.5336 70.76 23.3055 70.6184 23.0539C70.5398 22.8967 70.4926 22.7551 70.4769 22.6293C70.4612 22.4878 70.4848 22.3541 70.5477 22.2283C70.6106 22.1025 70.7049 21.9767 70.8307 21.8509C70.988 21.6622 71.1452 21.5757 71.3025 21.5914C71.4598 21.5914 71.6563 21.6937 71.8922 21.8981C72.0652 22.0082 72.2696 22.134 72.5055 22.2755C72.7414 22.4013 72.9851 22.5193 73.2368 22.6293C73.4884 22.7237 73.74 22.8102 73.9916 22.8888C74.2589 22.9517 74.5184 22.9832 74.77 22.9832C75.4934 22.9832 76.0752 22.8495 76.5156 22.5822C76.9559 22.2991 77.176 21.9295 77.176 21.4735C77.176 21.2062 77.121 20.9781 77.0109 20.7894C76.9008 20.6007 76.7514 20.4435 76.5627 20.3177C76.374 20.1761 76.1617 20.0582 75.9258 19.9638C75.69 19.8695 75.4226 19.783 75.1238 19.7044C74.8408 19.61 74.5577 19.5235 74.2746 19.4449C73.8501 19.3348 73.4333 19.209 73.0245 19.0675C72.6156 18.9259 72.246 18.7451 71.9158 18.5249C71.5856 18.2891 71.3182 17.9981 71.1138 17.6522C70.9094 17.2905 70.8071 16.8344 70.8071 16.284C70.8071 15.6393 70.9723 15.081 71.3025 14.6092C71.6327 14.1375 72.0966 13.7758 72.6942 13.5242C73.2918 13.2568 73.9916 13.1232 74.7936 13.1232C75.1396 13.1232 75.4619 13.1468 75.7607 13.1939C76.0595 13.2411 76.3426 13.3197 76.6099 13.4298C76.893 13.5242 77.1603 13.6421 77.4119 13.7836C77.6635 13.9095 77.9073 14.0667 78.1432 14.2554C78.4262 14.4441 78.5756 14.6486 78.5913 14.8687C78.6071 15.0889 78.5206 15.3169 78.3319 15.5528C78.1903 15.7572 78.0331 15.8909 77.8601 15.9538C77.6871 16.001 77.5141 15.9538 77.3412 15.8123C77.0895 15.6236 76.8222 15.4584 76.5391 15.3169C76.2561 15.1754 75.9652 15.0574 75.6664 14.9631C75.3676 14.8687 75.0609 14.8215 74.7464 14.8215C74.3533 14.8215 73.9994 14.8844 73.6849 15.0103C73.3861 15.1203 73.1503 15.2933 72.9773 15.5292C72.82 15.7494 72.7414 16.001 72.7414 16.284C72.7414 16.5356 72.8043 16.7401 72.9301 16.8973C73.0716 17.0546 73.2446 17.1883 73.4491 17.2983C73.6692 17.4084 73.9208 17.5106 74.2039 17.605C74.5027 17.6836 74.8093 17.7622 75.1238 17.8409C75.5799 17.951 76.0438 18.0846 76.5156 18.2419C77.0031 18.3834 77.4355 18.58 77.8129 18.8316C78.2061 19.0675 78.5206 19.3899 78.7565 19.7987C79.0081 20.1919 79.1339 20.7187 79.1339 21.3791C79.1339 22.417 78.725 23.2348 77.9073 23.8324C77.0895 24.4299 76.0045 24.7287 74.6521 24.7287ZM85.9832 24.6108C85.2441 24.6108 84.6151 24.54 84.0961 24.3985C83.5929 24.2569 83.1762 24.0368 82.8459 23.738C82.5157 23.4392 82.2798 23.0539 82.1383 22.5822C81.9967 22.0947 81.926 21.4971 81.926 20.7894V10.3633C81.926 10.1432 81.9496 9.95445 81.9967 9.79719C82.0439 9.63994 82.1383 9.52199 82.2798 9.44336C82.4213 9.34901 82.6415 9.30183 82.9403 9.30183C83.2391 9.30183 83.4671 9.34901 83.6243 9.44336C83.7816 9.52199 83.8838 9.63994 83.931 9.79719C83.9782 9.93872 84.0018 10.1196 84.0018 10.3397V20.7894C84.0018 21.1983 84.0332 21.5285 84.0961 21.7802C84.1747 22.016 84.2848 22.1969 84.4264 22.3227C84.5836 22.4485 84.788 22.5271 85.0397 22.5586C85.2913 22.59 85.5979 22.6058 85.9596 22.6058C86.2112 22.6058 86.4156 22.6293 86.5729 22.6765C86.7302 22.7237 86.8481 22.818 86.9267 22.9596C87.0054 23.1011 87.0447 23.3134 87.0447 23.5965C87.0447 23.8953 86.9975 24.1233 86.9031 24.2805C86.8245 24.4221 86.6987 24.5086 86.5257 24.54C86.3685 24.5872 86.1876 24.6108 85.9832 24.6108ZM80.6994 13.4534L82.9639 13.477L86.2427 13.4298C86.4628 13.4298 86.6515 13.4534 86.8088 13.5006C86.966 13.532 87.084 13.6264 87.1626 13.7836C87.257 13.9252 87.3041 14.1453 87.3041 14.4441C87.3041 14.7429 87.2648 14.9709 87.1862 15.1282C87.1076 15.2697 86.9896 15.3641 86.8324 15.4113C86.6751 15.4584 86.4864 15.482 86.2663 15.482L83.0346 15.4348L80.6522 15.4584C80.322 15.4584 80.0939 15.3798 79.9681 15.2225C79.858 15.0653 79.803 14.8058 79.803 14.4441C79.803 14.0982 79.8738 13.8466 80.0153 13.6893C80.1568 13.532 80.3849 13.4534 80.6994 13.4534ZM89.8037 24.6108C89.505 24.6108 89.2769 24.5636 89.1197 24.4692C88.9781 24.3906 88.8838 24.2727 88.8366 24.1154C88.8052 23.9424 88.7894 23.7459 88.7894 23.5257V14.2318C88.7894 13.9959 88.813 13.7994 88.8602 13.6421C88.9074 13.4849 89.0017 13.3748 89.1433 13.3119C89.2848 13.2333 89.5128 13.1939 89.8273 13.1939C90.1104 13.1939 90.3227 13.2333 90.4642 13.3119C90.6215 13.3748 90.7237 13.477 90.7709 13.6185C90.8338 13.7443 90.8652 13.8937 90.8652 14.0667L90.7709 14.7744C90.881 14.5699 91.0068 14.3655 91.1483 14.1611C91.3055 13.9566 91.4943 13.7758 91.7144 13.6185C91.9503 13.4455 92.2255 13.304 92.54 13.1939C92.8703 13.0839 93.2713 13.0288 93.743 13.0288C93.9789 13.0288 94.1991 13.0524 94.4035 13.0996C94.6237 13.131 94.8281 13.1861 95.0168 13.2647C95.2212 13.3433 95.3942 13.4377 95.5358 13.5478C95.6773 13.6421 95.7874 13.7522 95.866 13.878C95.9603 13.9881 96.0075 14.1218 96.0075 14.279C96.0075 14.625 95.8974 14.9238 95.6773 15.1754C95.4571 15.4113 95.2291 15.5292 94.9932 15.5292C94.7888 15.5292 94.6394 15.5056 94.545 15.4584C94.4507 15.3955 94.3563 15.3326 94.262 15.2697C94.1833 15.2068 94.0654 15.1518 93.9081 15.1046C93.7509 15.0417 93.4993 15.0103 93.1533 15.0103C92.9174 15.0103 92.6658 15.0574 92.3985 15.1518C92.1469 15.2461 91.9031 15.3877 91.6672 15.5764C91.4314 15.7494 91.2348 15.9774 91.0775 16.2604C90.936 16.5435 90.8652 16.8737 90.8652 17.2512V23.5729C90.8652 23.793 90.8416 23.9817 90.7945 24.139C90.7473 24.2963 90.6451 24.4142 90.4878 24.4928C90.3463 24.5715 90.1183 24.6108 89.8037 24.6108ZM106.3 24.5872C105.954 24.5872 105.702 24.5164 105.545 24.3749C105.404 24.2334 105.317 24.0132 105.286 23.7144L105.38 22.535C105.223 22.7866 104.979 23.0775 104.649 23.4078C104.319 23.7223 103.886 24.0053 103.351 24.2569C102.817 24.4928 102.164 24.6108 101.394 24.6108C100.639 24.6108 99.9311 24.4614 99.2706 24.1626C98.6258 23.8638 98.0519 23.4471 97.5486 22.9124C97.0611 22.3777 96.6759 21.7644 96.3928 21.0725C96.1255 20.3806 95.9918 19.6415 95.9918 18.8552C95.9918 18.0846 96.1255 17.3612 96.3928 16.685C96.6759 15.9931 97.069 15.3877 97.5722 14.8687C98.0755 14.3498 98.6494 13.9409 99.2942 13.6421C99.9547 13.3433 100.654 13.1939 101.394 13.1939C102.085 13.1939 102.675 13.2883 103.163 13.477C103.65 13.65 104.067 13.8859 104.413 14.1847C104.775 14.4677 105.089 14.7901 105.356 15.1518L105.309 14.1611C105.294 13.8151 105.364 13.5714 105.522 13.4298C105.695 13.2726 105.962 13.1939 106.324 13.1939C106.622 13.1939 106.835 13.2411 106.96 13.3355C107.102 13.4298 107.196 13.5635 107.244 13.7365C107.291 13.9095 107.314 14.1218 107.314 14.3734V23.4785C107.314 23.6987 107.291 23.8953 107.244 24.0682C107.196 24.2412 107.102 24.367 106.96 24.4457C106.819 24.54 106.599 24.5872 106.3 24.5872ZM101.747 22.6293C102.376 22.6293 102.95 22.4642 103.469 22.134C104.004 21.8037 104.421 21.3634 104.72 20.813C105.034 20.2469 105.191 19.6021 105.191 18.8788C105.191 18.1397 105.026 17.4949 104.696 16.9445C104.381 16.3784 103.957 15.9381 103.422 15.6236C102.903 15.2933 102.329 15.1282 101.7 15.1282C100.961 15.1282 100.316 15.3012 99.766 15.6471C99.2313 15.9774 98.8067 16.4256 98.4922 16.9917C98.1777 17.5578 98.0204 18.2026 98.0204 18.9259C98.0204 19.6336 98.1777 20.2705 98.4922 20.8366C98.8067 21.387 99.2391 21.8273 99.7895 22.1576C100.356 22.4721 101.008 22.6293 101.747 22.6293Z" fill="white"/>
</g>
<defs>
<clipPath id="clip0_12382_44844">
<rect width="109.293" height="31.4513" fill="white"/>
</clipPath>
</defs>
</svg>
