<svg width="74" height="36" viewBox="0 0 74 36" fill="none" xmlns="http://www.w3.org/2000/svg">
<g clip-path="url(#clip0_12382_44855)">
<path fill-rule="evenodd" clip-rule="evenodd" d="M15.7257 33.417C24.4107 33.417 31.4513 26.3764 31.4513 17.6914C31.4513 9.00632 24.4107 1.9657 15.7257 1.9657C7.04061 1.9657 0 9.00632 0 17.6914C0 26.3764 7.04061 33.417 15.7257 33.417ZM20.6315 9.29134C20.8703 8.4431 20.0472 7.94153 19.2954 8.47715L8.80095 15.9534C7.98565 16.5342 8.1139 17.6914 8.99359 17.6914H11.7571V17.67H17.1429L12.7545 19.2184L10.8198 26.0914C10.581 26.9396 11.4041 27.4412 12.1559 26.9056L22.6504 19.4294C23.4657 18.8486 23.3374 17.6914 22.4578 17.6914H18.267L20.6315 9.29134Z" fill="white"/>
<path d="M45.47 27.7042C44.7943 27.7042 44.2453 27.5391 43.823 27.2089C43.4007 26.8711 43.0628 26.3605 42.8094 25.677V27.5199H38.6169V7.24854H42.8094V12.086C43.0628 11.4487 43.4122 10.9535 43.8575 10.6002C44.3106 10.2394 44.9556 10.0589 45.7926 10.0589C46.9213 10.0589 47.716 10.4697 48.1767 11.2913C48.6451 12.1129 48.8793 13.1879 48.8793 14.5163V23.0165C48.8793 23.8995 48.7565 24.698 48.5107 25.4121C48.2727 26.1186 47.9003 26.6791 47.3935 27.0937C46.8944 27.5007 46.2533 27.7042 45.47 27.7042ZM43.7654 24.4907C44.2031 24.4907 44.468 24.2757 44.5601 23.8457C44.6523 23.4157 44.6984 22.8859 44.6984 22.2563V15.5068C44.6984 14.8695 44.6523 14.3397 44.5601 13.9174C44.468 13.4873 44.2069 13.2724 43.7769 13.2724C43.3316 13.2724 43.059 13.4912 42.9591 13.9288C42.8593 14.3589 42.8094 14.8849 42.8094 15.5068V22.2563C42.8094 22.8782 42.8593 23.408 42.9591 23.8457C43.059 24.2757 43.3277 24.4907 43.7654 24.4907ZM54.9612 27.7042C51.5212 27.7042 49.8012 25.919 49.8012 22.3484V15.4147C49.8012 13.7868 50.2581 12.4892 51.1718 11.5216C52.0856 10.5465 53.3487 10.0589 54.9612 10.0589C56.5813 10.0589 57.8483 10.5465 58.7621 11.5216C59.6758 12.4892 60.1326 13.7868 60.1326 15.4147V22.3484C60.1326 25.919 58.4089 27.7042 54.9612 27.7042ZM54.9612 24.5253C55.3068 24.5253 55.5525 24.4025 55.6983 24.1567C55.8519 23.9033 55.9287 23.5846 55.9287 23.2007V14.7581C55.9287 13.7522 55.6062 13.2493 54.9612 13.2493C54.3162 13.2493 53.9937 13.7522 53.9937 14.7581V23.2007C53.9937 23.5846 54.0666 23.9033 54.2126 24.1567C54.3661 24.4025 54.6156 24.5253 54.9612 24.5253ZM61.1928 27.5199V7.24854H65.3853V27.5199H61.1928ZM70.1195 27.7042C69.0062 27.7042 68.2537 27.47 67.8621 27.0016C67.4781 26.5256 67.2862 25.7999 67.2862 24.8248V14.0556H66.1229V10.9112H67.2862V7.24854H71.2944V10.9112H72.4576V14.0556H71.2944V23.8572C71.2944 24.1413 71.3405 24.341 71.4326 24.4562C71.5247 24.5713 71.7013 24.6289 71.9624 24.6289C72.1467 24.6289 72.3118 24.6136 72.4576 24.5828V27.3932C72.3656 27.4239 72.0776 27.4815 71.5938 27.566C71.1101 27.6581 70.6187 27.7042 70.1195 27.7042Z" fill="white"/>
</g>
<defs>
<clipPath id="clip0_12382_44855">
<rect width="73.1244" height="35.3828" fill="white"/>
</clipPath>
</defs>
</svg>
