<svg width="100" height="32" viewBox="0 0 100 32" fill="none" xmlns="http://www.w3.org/2000/svg">
<path d="M17.3175 25.2488C17.3458 22.362 16.6139 20.0145 15.6829 20.0054C14.7519 19.9964 13.9743 22.3292 13.9461 25.2159C13.9179 28.1027 14.6497 30.4502 15.5807 30.4594C16.5117 30.4685 17.2894 28.1356 17.3175 25.2488Z" fill="white"/>
<path d="M11.9184 24.5931C13.503 22.1799 14.1566 19.8094 13.3783 19.2984C12.6001 18.7874 10.6846 20.3293 9.10009 22.7425C7.51548 25.1558 6.86186 27.5263 7.64009 28.0374C8.41838 28.5484 10.3338 27.0064 11.9184 24.5931Z" fill="white"/>
<path d="M7.72406 21.1309C10.3618 19.9576 12.1933 18.3168 11.815 17.4662C11.4366 16.6154 8.99158 16.877 6.35379 18.0503C3.71605 19.2236 1.8845 20.8643 2.26289 21.715C2.64127 22.5657 5.08632 22.3042 7.72406 21.1309Z" fill="white"/>
<path d="M11.4984 15.0807C11.64 14.1605 9.44179 13.0585 6.58851 12.6193C3.73517 12.1801 1.30729 12.5701 1.16566 13.4903C1.02402 14.4105 3.22227 15.5125 6.07559 15.9516C8.9289 16.3908 11.3568 16.0008 11.4984 15.0807Z" fill="white"/>
<path d="M12.5225 12.8883C13.1391 12.1907 11.8853 10.0753 9.72215 8.16357C7.55899 6.25176 5.30558 5.26749 4.68902 5.96512C4.07246 6.66276 5.32624 8.77813 7.48942 10.6899C9.65256 12.6017 11.906 13.5859 12.5225 12.8883Z" fill="white"/>
<path d="M14.563 11.6072C15.4589 11.3537 15.5479 8.89624 14.7618 6.11843C13.9758 3.34059 12.6123 1.29421 11.7165 1.54772C10.8206 1.80122 10.7316 4.2586 11.5176 7.03647C12.3037 9.81423 13.6671 11.8607 14.563 11.6072Z" fill="white"/>
<path d="M20.1028 7.12316C20.9435 4.36136 20.903 1.9027 20.0123 1.63158C19.1216 1.36046 17.718 3.37954 16.8773 6.14135C16.0367 8.90315 16.0772 11.3618 16.9679 11.6329C17.8586 11.904 19.2622 9.88498 20.1028 7.12316Z" fill="white"/>
<path d="M24.0611 10.8547C26.2613 8.98558 27.5562 6.89512 26.9533 6.1856C26.3505 5.47605 24.0783 6.41611 21.8782 8.28524C19.6781 10.1544 18.3832 12.2448 18.986 12.9544C19.5888 13.6639 21.861 12.7239 24.0611 10.8547Z" fill="white"/>
<path d="M25.37 16.1357C28.2314 15.7529 30.4509 14.6945 30.3275 13.7717C30.204 12.8489 27.7843 12.4111 24.9229 12.7939C22.0615 13.1768 19.8419 14.2351 19.9654 15.158C20.0889 16.0807 22.5085 16.5185 25.37 16.1357Z" fill="white"/>
<path d="M29.0611 21.9788C29.4562 21.1357 27.6573 19.4592 25.0433 18.2341C22.4292 17.009 19.9897 16.6993 19.5947 17.5423C19.1996 18.3855 20.9984 20.062 23.6125 21.2871C26.2265 22.5121 28.666 22.8218 29.0611 21.9788Z" fill="white"/>
<path d="M23.5627 28.1991C24.3508 27.7036 23.7441 25.3206 22.2074 22.8766C20.6708 20.4326 18.7861 18.8532 17.9979 19.3487C17.2097 19.8443 17.8165 22.2273 19.3531 24.6713C20.8898 27.1153 22.7745 28.6947 23.5627 28.1991Z" fill="white"/>
<path d="M41.8697 19.6729L40.7375 23.5886H37.9304L43.1199 7.31248H46.5166L51.7061 23.5886H48.8047L47.6725 19.6729H41.8697ZM47.1063 17.5499L44.7711 9.43545L42.4358 17.5499H47.1063ZM62.0287 22.9281C61.5569 23.2269 61.0065 23.4627 60.3775 23.6357C59.7484 23.8087 59.088 23.8952 58.396 23.8952C56.9807 23.8952 55.8878 23.5335 55.1172 22.8101C54.3467 22.071 53.9614 21.0724 53.9614 19.8144V13.0681H51.2015V11.1338H53.9614V8.35038L56.6033 8.04373V11.1338H60.8257L60.519 13.0681H56.6033V19.7908C56.6033 20.467 56.7763 20.9702 57.1223 21.3005C57.4682 21.615 58.0186 21.7722 58.7735 21.7722C59.6069 21.7722 60.3775 21.5757 61.0851 21.1825L62.0287 22.9281ZM68.8837 20.1918C68.8837 21.2454 69.5128 21.7722 70.7708 21.7722C71.3998 21.7722 72.0603 21.6307 72.7522 21.3476L73.4127 23.1875C72.5478 23.6593 71.4785 23.8952 70.2047 23.8952C68.9624 23.8952 67.9874 23.5492 67.2797 22.8573C66.5878 22.1497 66.2418 21.1825 66.2418 19.9559V8.06731H62.4912V6.13306H68.8837V20.1918ZM84.7261 20.5456C84.7261 21.0174 84.7968 21.3712 84.9384 21.6071C85.0799 21.8273 85.3237 21.9924 85.6696 22.1025L85.0563 23.8952C83.7511 23.7379 82.894 23.164 82.4852 22.1732C82.0291 22.7394 81.4551 23.1718 80.7632 23.4706C80.087 23.7537 79.34 23.8952 78.5221 23.8952C77.2641 23.8952 76.2655 23.5414 75.5264 22.8337C74.7873 22.1261 74.4177 21.1904 74.4177 20.0267C74.4177 18.7215 74.9288 17.715 75.951 17.0074C76.9889 16.2997 78.4514 15.9459 80.3386 15.9459H82.1078V15.1439C82.1078 14.3576 81.8719 13.7836 81.4001 13.4219C80.9283 13.0602 80.2443 12.8794 79.3479 12.8794C78.9076 12.8794 78.3963 12.9344 77.8145 13.0445C77.2326 13.1546 76.6429 13.3118 76.0454 13.5163L75.3849 11.6528C76.8788 11.0866 78.3334 10.8036 79.7489 10.8036C81.4001 10.8036 82.6424 11.1653 83.4759 11.8887C84.3094 12.612 84.7261 13.6421 84.7261 14.9787V20.5456ZM79.3007 21.9609C79.8511 21.9609 80.3779 21.8194 80.8812 21.5364C81.4001 21.2533 81.809 20.8601 82.1078 20.3569V17.5971H80.6453C79.4501 17.5971 78.5772 17.8015 78.0268 18.2104C77.4764 18.6035 77.2012 19.1775 77.2012 19.9323C77.2012 20.5928 77.3742 21.096 77.7201 21.442C78.0818 21.788 78.6086 21.9609 79.3007 21.9609ZM91.5101 21.8902C92.3436 21.8902 92.9962 21.7408 93.468 21.442C93.9555 21.1432 94.1992 20.7343 94.1992 20.2154C94.1992 19.8537 94.1285 19.5628 93.9869 19.3426C93.8454 19.1067 93.5623 18.8944 93.1377 18.7057C92.7131 18.5013 92.0763 18.289 91.2271 18.0688C89.8589 17.7229 88.8289 17.2826 88.137 16.7479C87.4608 16.1975 87.1227 15.4112 87.1227 14.389C87.1227 13.304 87.5709 12.4391 88.4672 11.7943C89.3636 11.1338 90.5745 10.8036 92.0999 10.8036C93.9398 10.8036 95.5202 11.2832 96.8411 12.2425L95.7089 13.9173C94.5924 13.1782 93.4129 12.8086 92.1706 12.8086C90.598 12.8086 89.8118 13.2646 89.8118 14.1767C89.8118 14.4913 89.8983 14.7507 90.0712 14.9552C90.2599 15.1596 90.5745 15.3562 91.0148 15.5449C91.4551 15.7179 92.1077 15.9223 92.9726 16.1582C94.325 16.5356 95.3315 16.9995 95.992 17.5499C96.6682 18.1003 97.0063 18.9259 97.0063 20.0267C97.0063 21.3005 96.4795 22.2676 95.4258 22.9281C94.3722 23.5728 93.067 23.8952 91.5101 23.8952C89.4501 23.8952 87.7438 23.3134 86.3914 22.1497L87.7831 20.5456C88.3021 20.9545 88.8761 21.2847 89.5051 21.5364C90.1499 21.7722 90.8182 21.8902 91.5101 21.8902Z" fill="white"/>
</svg>
