<svg width="91" height="32" viewBox="0 0 91 32" fill="none" xmlns="http://www.w3.org/2000/svg">
<g clip-path="url(#clip0_12382_44857)">
<path fill-rule="evenodd" clip-rule="evenodd" d="M15.7257 31.4513C24.4108 31.4513 31.4513 24.4107 31.4513 15.7257C31.4513 7.04062 24.4108 0 15.7257 0C7.04061 0 0 7.04062 0 15.7257C0 24.4107 7.04061 31.4513 15.7257 31.4513ZM18.1529 12.1501C19.4934 10.8096 19.4934 8.63622 18.1529 7.29566C16.8124 5.95514 14.639 5.95514 13.2985 7.29566C11.958 8.63622 11.958 10.8096 13.2985 12.1501L15.7257 14.5773L18.1529 12.1501ZM19.3013 18.1529C20.6418 19.4935 22.8152 19.4935 24.1557 18.1529C25.4962 16.8124 25.4962 14.639 24.1557 13.2985C22.8152 11.958 20.6418 11.958 19.3013 13.2985L16.8741 15.7257L19.3013 18.1529ZM18.1529 24.1557C19.4934 22.8152 19.4934 20.6418 18.1529 19.3013L15.7257 16.8741L13.2985 19.3013C11.958 20.6418 11.958 22.8152 13.2985 24.1557C14.639 25.4963 16.8124 25.4963 18.1529 24.1557ZM7.29563 18.1529C5.95515 16.8124 5.95515 14.639 7.29563 13.2985C8.63622 11.958 10.8096 11.958 12.1501 13.2985L14.5773 15.7257L12.1501 18.1529C10.8096 19.4935 8.63622 19.4935 7.29563 18.1529Z" fill="white"/>
<path d="M46.729 23.9187C45.9741 23.9187 45.3058 23.7693 44.724 23.4706C44.1578 23.156 43.6939 22.7 43.3322 22.1024C42.9705 21.4891 42.7189 20.7343 42.5774 19.8379H42.2236L42.1764 23.5885H38.9919V18.0924V6.7699H42.7897V10.7328C42.7897 11.1259 42.7661 11.5426 42.7189 11.983C42.6718 12.4233 42.6088 12.8872 42.5302 13.3747C42.4516 13.8464 42.3572 14.3418 42.2472 14.8608H42.6953C42.884 13.9487 43.1592 13.2017 43.5209 12.6198C43.8826 12.0223 44.3387 11.5741 44.8891 11.2753C45.4395 10.9765 46.0842 10.8271 46.8233 10.8271C47.814 10.8271 48.6711 11.0866 49.3945 11.6055C50.1336 12.1088 50.7076 12.8479 51.1164 13.8229C51.5253 14.7821 51.7297 15.9616 51.7297 17.3611C51.7297 18.7607 51.5174 19.948 51.0928 20.923C50.684 21.898 50.1021 22.645 49.3473 23.1639C48.6082 23.6671 47.7354 23.9187 46.729 23.9187ZM45.3373 20.8522C45.8405 20.8522 46.2729 20.7107 46.6346 20.4276C47.012 20.1289 47.2951 19.72 47.4838 19.201C47.6882 18.6664 47.7905 18.0688 47.7905 17.4083C47.7905 16.7164 47.6961 16.1109 47.5074 15.592C47.3187 15.0731 47.0435 14.6642 46.6818 14.3654C46.3358 14.0666 45.9034 13.9172 45.3844 13.9172C45.0856 13.9172 44.8026 13.9723 44.5352 14.0823C44.2679 14.1924 44.0242 14.3497 43.804 14.5541C43.5996 14.7428 43.4187 14.9708 43.2615 15.2382C43.1042 15.5055 42.9863 15.8043 42.9076 16.1345C42.829 16.4648 42.7897 16.8107 42.7897 17.1724V17.5498C42.7897 17.9744 42.8447 18.3833 42.9548 18.7764C43.0649 19.1696 43.2221 19.5234 43.4266 19.8379C43.6467 20.1524 43.9141 20.4041 44.2286 20.5928C44.5431 20.7657 44.9127 20.8522 45.3373 20.8522ZM56.0245 23.9187C55.3326 23.9187 54.7114 23.7929 54.161 23.5413C53.6263 23.2897 53.1939 22.9123 52.8636 22.4091C52.5491 21.8901 52.3919 21.2454 52.3919 20.4748C52.3919 19.6414 52.5727 18.973 52.9344 18.4698C53.3118 17.9666 53.7914 17.5813 54.3733 17.314C54.9709 17.0309 55.592 16.8265 56.2368 16.7007C56.8973 16.5749 57.5184 16.4648 58.1003 16.3704C58.6979 16.2761 59.1618 16.1896 59.492 16.1109C59.838 16.0323 60.0817 15.9144 60.2233 15.7571C60.3805 15.5999 60.4591 15.3954 60.4591 15.1438C60.4591 14.8608 60.3884 14.617 60.2468 14.4126C60.121 14.1924 59.9245 14.0273 59.6571 13.9172C59.3898 13.7914 59.0595 13.7285 58.6664 13.7285C58.2575 13.7285 57.8723 13.7993 57.5106 13.9408C57.1646 14.0823 56.8658 14.3104 56.6142 14.6249C56.3783 14.9237 56.2211 15.3168 56.1424 15.8043L52.7929 15.0731C52.9187 14.3025 53.1624 13.6499 53.5241 13.1152C53.8858 12.5648 54.334 12.1166 54.8687 11.7707C55.4033 11.4247 55.993 11.1809 56.6378 11.0394C57.2983 10.8822 57.9981 10.8035 58.7372 10.8035C59.6807 10.8035 60.4906 10.9215 61.1668 11.1574C61.8587 11.3932 62.4248 11.7549 62.8652 12.2424C63.3212 12.7142 63.6514 13.3118 63.8559 14.0352C64.076 14.7585 64.1861 15.6077 64.1861 16.5827V18.5877C64.1861 19.1381 64.194 19.6964 64.2097 20.2625C64.2254 20.8129 64.2412 21.3633 64.2569 21.9137C64.2883 22.4641 64.3276 23.0224 64.3748 23.5885H61.0488C61.0017 23.1482 60.9545 22.6686 60.9073 22.1496C60.8759 21.6149 60.8523 21.0567 60.8366 20.4748H60.4827C60.3255 21.1196 60.0345 21.7014 59.61 22.2204C59.2011 22.7393 58.69 23.156 58.0767 23.4706C57.4791 23.7693 56.7951 23.9187 56.0245 23.9187ZM57.6757 21.2061C57.943 21.2061 58.2261 21.1589 58.5249 21.0645C58.8237 20.9545 59.1067 20.7972 59.3741 20.5928C59.6414 20.3883 59.8773 20.1289 60.0817 19.8143C60.2862 19.4998 60.4277 19.1303 60.5063 18.7057L60.4827 17.2904L61.0253 17.3375C60.7894 17.542 60.5063 17.6992 60.1761 17.8093C59.8458 17.9194 59.492 18.0138 59.1146 18.0924C58.7529 18.1553 58.3912 18.226 58.0295 18.3047C57.6678 18.3676 57.3376 18.4541 57.0388 18.5642C56.7557 18.6742 56.5277 18.8236 56.3547 19.0123C56.1975 19.201 56.1188 19.4684 56.1188 19.8143C56.1188 20.2389 56.2604 20.577 56.5434 20.8286C56.8422 21.0803 57.2196 21.2061 57.6757 21.2061ZM71.0545 23.9187C70.221 23.9187 69.4583 23.8401 68.7664 23.6829C68.0744 23.5256 67.469 23.2976 66.9501 22.9988C66.4468 22.6843 66.038 22.2911 65.7235 21.8194C65.4247 21.3476 65.2438 20.7972 65.1809 20.1682L68.2002 19.2482C68.2789 19.6099 68.444 19.9401 68.6956 20.2389C68.9472 20.5377 69.2853 20.7736 69.7099 20.9466C70.1345 21.1038 70.6535 21.1825 71.2668 21.1825C71.8486 21.1825 72.3125 21.096 72.6585 20.923C73.0202 20.75 73.201 20.4827 73.201 20.121C73.201 19.8851 73.1145 19.6964 72.9415 19.5549C72.7686 19.4133 72.4934 19.2875 72.1159 19.1775C71.7385 19.0516 71.251 18.9258 70.6535 18.8C69.993 18.6428 69.3482 18.4777 68.7192 18.3047C68.0902 18.116 67.524 17.8801 67.0208 17.597C66.5176 17.2982 66.1166 16.9208 65.8178 16.4648C65.519 16.0087 65.3696 15.4347 65.3696 14.7428C65.3696 13.9408 65.5819 13.2489 66.0065 12.667C66.4468 12.0852 67.068 11.6291 67.87 11.2989C68.6877 10.9687 69.6627 10.8035 70.795 10.8035C71.8014 10.8035 72.7057 10.9451 73.5077 11.2281C74.3097 11.4955 74.9623 11.9122 75.4655 12.4783C75.9845 13.0287 76.2911 13.7285 76.3855 14.5777L73.2718 15.3797C73.2403 15.0023 73.1145 14.6799 72.8944 14.4126C72.6742 14.1295 72.3833 13.9172 72.0216 13.7757C71.6599 13.6184 71.2353 13.5398 70.7478 13.5398C70.166 13.5398 69.7099 13.642 69.3797 13.8464C69.0652 14.0352 68.9079 14.2789 68.9079 14.5777C68.9079 14.8293 69.0101 15.0416 69.2146 15.2146C69.4347 15.3718 69.7492 15.5055 70.1581 15.6156C70.567 15.7257 71.0702 15.8515 71.6678 15.993C72.2653 16.1031 72.8551 16.2446 73.4369 16.4176C74.0345 16.5906 74.5849 16.8186 75.0881 17.1017C75.5913 17.369 75.9923 17.7386 76.2911 18.2103C76.5899 18.6664 76.7393 19.2482 76.7393 19.9559C76.7393 20.7579 76.5191 21.4577 76.0788 22.0552C75.6385 22.6528 74.9937 23.1167 74.1446 23.447C73.3111 23.7615 72.2811 23.9187 71.0545 23.9187ZM83.862 23.9187C82.7769 23.9187 81.8255 23.7693 81.0078 23.4706C80.2058 23.1718 79.5296 22.7472 78.9792 22.1968C78.4447 21.6307 78.0359 20.9623 77.7528 20.1918C77.4855 19.4212 77.3518 18.5563 77.3518 17.597C77.3518 16.6535 77.4855 15.765 77.7528 14.9315C78.0201 14.0981 78.4133 13.3747 78.932 12.7614C79.4667 12.1481 80.1271 11.6684 80.9134 11.3225C81.6997 10.9765 82.5961 10.8035 83.6025 10.8035C84.6247 10.8035 85.5132 10.9765 86.268 11.3225C87.0386 11.6527 87.6676 12.1402 88.1551 12.785C88.6426 13.4297 88.9807 14.2003 89.1694 15.0966C89.3738 15.9773 89.421 16.968 89.3109 18.0688L79.8048 18.1631V16.1581L86.8813 16.0638L85.8434 17.0781C85.9378 16.3232 85.8985 15.7021 85.7255 15.2146C85.5525 14.7114 85.2852 14.3418 84.9235 14.1059C84.5618 13.8543 84.1372 13.7285 83.6497 13.7285C83.0836 13.7285 82.6039 13.8779 82.2108 14.1767C81.8177 14.4755 81.5189 14.9079 81.3144 15.4741C81.11 16.0245 81.0078 16.7007 81.0078 17.5027C81.0078 18.7764 81.2594 19.7043 81.7626 20.2861C82.2816 20.868 82.9814 21.1589 83.862 21.1589C84.2709 21.1589 84.609 21.1038 84.8763 20.9938C85.1436 20.8837 85.3638 20.7422 85.5368 20.5692C85.7098 20.3805 85.8356 20.1682 85.9142 19.9323C86.0086 19.6964 86.0715 19.4527 86.1029 19.201L89.4761 19.7436C89.4132 20.3097 89.2638 20.8444 89.0279 21.3476C88.8077 21.8351 88.4696 22.2754 88.0136 22.6686C87.5733 23.046 87.015 23.3526 86.3388 23.5885C85.6626 23.8087 84.837 23.9187 83.862 23.9187Z" fill="white"/>
</g>
<defs>
<clipPath id="clip0_12382_44857">
<rect width="90.4226" height="31.4513" fill="white"/>
</clipPath>
</defs>
</svg>
